<?xml version="1.0" encoding="utf-8"?>
<!-- Generator: Adobe Illustrator 20.1.0, SVG Export Plug-In . SVG Version: 6.00 Build 0)  -->
<svg version="1.1" id="Layer_1" xmlns="http://www.w3.org/2000/svg" xmlns:xlink="http://www.w3.org/1999/xlink" x="0px" y="0px"
	 viewBox="0 0 460.8 95.7" style="enable-background:new 0 0 460.8 95.7;" xml:space="preserve">
<style type="text/css">
	.st0{fill:#373737;}
	.st1{fill:#2B78AD;}
	.st2{fill:#114778;}
</style>
<g>
	<path class="st0" d="M232,31.8c4.3,4.4,6.7,10.2,6.7,16.3s-2.4,11.8-6.7,16.3c-4.3,4.3-10.1,6.6-16.3,6.6c-4,0-7.7-1.4-10.9-4.3
		l-0.5-0.4V92l-11.6,3.7V26h11.6v3.5l0.5-0.5c3.5-3.4,7.4-3.8,10.9-3.8C221.8,25.1,227.6,27.4,232,31.8z M227.1,48
		c0-6.4-5.2-11.6-11.4-11.6s-11.4,5.3-11.4,11.6c0,6.3,5.2,11.6,11.4,11.6S227.1,54.3,227.1,48z"/>
	<path class="st0" d="M249.7,64.3c-4.3-4.4-6.7-10.2-6.7-16.3s2.4-11.8,6.7-16.3c4.3-4.3,10.1-6.6,16.3-6.6c4,0,7.7,1.4,10.9,4.3
		l0.5,0.4V26h11.6v44.1h-11.6v-3.5l-0.5,0.5c-3.5,3.4-7.4,3.8-10.9,3.8C259.9,70.9,254.1,68.6,249.7,64.3z M254.6,48
		c0,6.4,5.2,11.6,11.4,11.6s11.4-5.3,11.4-11.6c0-6.3-5.2-11.6-11.4-11.6S254.6,41.8,254.6,48z"/>
	<path class="st0" d="M249.7,64.3c-4.3-4.4-6.7-10.2-6.7-16.3s2.4-11.8,6.7-16.3c4.3-4.3,10.1-6.6,16.3-6.6c4,0,7.7,1.4,10.9,4.3
		l0.5,0.4V26h11.6v44.1h-11.6v-3.5l-0.5,0.5c-3.5,3.4-7.4,3.8-10.9,3.8C259.9,70.9,254.1,68.6,249.7,64.3z M254.6,48
		c0,6.4,5.2,11.6,11.4,11.6s11.4-5.3,11.4-11.6c0-6.3-5.2-11.6-11.4-11.6S254.6,41.8,254.6,48z"/>
	<path class="st0" d="M300.6,95.7L311,70.2L293.4,26h12.9l11,27.4L328.5,26h12.8l-28.1,69.7H300.6z"/>
	<path class="st0" d="M300.6,95.7L311,70.2L293.4,26h12.9l11,27.4L328.5,26h12.8l-28.1,69.7H300.6z"/>
	<path class="st0" d="M22.5,70.5c-6,0-11.7-2.3-16-6.5C2.3,59.7,0,54,0,48s2.3-11.6,6.6-16c4.3-4.2,9.9-6.5,16-6.5
		c6.1,0,11.2,3.2,14.5,5.9l0.9,0.8v-5.7h7.1v42.9h-7.1v-5.7L37,64.5C33.7,67.2,28.6,70.5,22.5,70.5z M22.5,32.5
		C14,32.5,7.1,39.5,7.1,48S14,63.5,22.5,63.5S37.9,56.6,37.9,48S31,32.5,22.5,32.5z"/>
	<path class="st0" d="M58,69.5V33.3h-6.5v-6.8H58V13.9C58,6.1,64.2,0,72,0h9l-1.8,6.8h-7c-3.8,0-7.1,3.4-7.1,7.3v12.5h13.6v6.8H65.1
		v36.2H58z"/>
	<path class="st0" d="M105.6,69.5c-7.8,0-14.1-6.3-14.1-14.1V33.3H85v-6.8h6.5V0h7.1v26.6h13.6v6.8H98.7v21.9c0,3.9,3.4,7.5,7.1,7.5
		h7l1.8,6.8H105.6z"/>
	<path class="st0" d="M136.4,70.3c-5.6,0-10.7-2.3-14.5-6.5c-3.4-3.7-5.5-8.4-5.8-13.5c-0.1-0.7-0.1-1.3-0.1-2
		c0-1.7,0.2-3.4,0.6-5.1c0.8-3.9,2.7-7.5,5.4-10.4c3.7-4.1,9-6.5,14.5-6.5c5.5,0,10.7,2.3,14.6,6.5c2.8,3.1,4.6,6.7,5.3,10.4
		c0.6,3.3,0.6,5.3,0.5,6.4h-34v0.8c1,7.6,6.7,13.4,13.4,13.5c4.1-0.2,8.1-1.9,10.9-4.5l6,3.6c-1.6,1.7-3.3,3.1-5.3,4.3
		C144.6,69,140.6,70.1,136.4,70.3z M136.4,32.8c-5.5,0-10.6,4-12.8,9.9l-0.1,0.1l-0.4,0.8h26.5l-0.5-1
		C147.1,36.8,142,32.8,136.4,32.8z"/>
	<path class="st0" d="M163.8,69.5V26.6h7.1V32l1-1.1c2.5-2.8,10-5.1,14.9-5.3l-1.7,7.1C177.3,33,171,39.1,171,46.6v22.9H163.8z"/>
</g>
<path class="st1" d="M402.9,38.2c4.2-2.5,8.2-4.8,12.5-7.2c-1.4-2.4-1-1.8-2.3-4.1c-1.3-2.4-0.8-3.4,1.9-3.4c8-0.1,16-0.1,24.1,0
	c2.4,0,3,1,1.8,3.1c-4,7-8,13.9-12,20.9c-1.3,2.2-2.4,2.2-3.8,0c-1.4-2.2-1-1.7-2.5-4.2c-4.2,2.4-8.4,4.9-12.5,7.2
	c0.2,0.6,0.6,1.1,0.8,1.5c3.1,5.4,4.5,7.9,7.7,13.3c3.8,6.3,11.7,6.7,16.2,0.9c0.5-0.6,1-1.3,1.4-2c7.6-13.1,15.1-26.2,22.7-39.4
	c0.8-1.3,1.5-2.8,1.8-4.3c1.3-5.9-3.1-11.5-9.2-11.5c-16.2-0.1-32.5-0.1-48.7,0c-7.4,0.1-11.8,7.5-8.6,14c1.1,2.1,2.3,4.1,3.5,6.2
	C399.9,32.9,400.4,33.9,402.9,38.2z"/>
<path class="st2" d="M366.8,78.7c0-4.9,0-14.4,0-14.4s-2,0-4.7,0c-2.7,0-3.3-1-2-3.3c3.9-6.9,7.9-13.8,12-20.7c1.2-2,2.3-2.2,3.6,0
	c4,6.9,8,13.8,11.9,20.7c1.3,2.2,0.7,3.2-1.8,3.3c-2.6,0-4.8,0-4.8,0l0,14.4c0,0,10.7,0,16.9,0c7.3-0.1,11.6-6.7,8.8-13.5
	c-0.3-0.8-0.7-1.5-1.1-2.2c-7.5-13-15-26.1-22.5-39.1c-0.8-1.3-1.7-2.6-2.8-3.7c-4.4-4.1-11.4-3.1-14.5,2.2
	c-8.2,13.9-16.3,27.8-24.2,41.8c-3.6,6.4,0.5,13.9,7.7,14.3C351.7,78.8,361.7,78.7,366.8,78.7z"/>
</svg>
