<?xml version="1.0" encoding="utf-8"?>
<!-- Generator: Adobe Illustrator 20.1.0, SVG Export Plug-In . SVG Version: 6.00 Build 0)  -->
<svg version="1.1" id="Layer_1" xmlns="http://www.w3.org/2000/svg" xmlns:xlink="http://www.w3.org/1999/xlink" x="0px" y="0px"
	 viewBox="0 0 62 61.8" style="enable-background:new 0 0 62 61.8;" xml:space="preserve">
<style type="text/css">
	.st0{fill:none;stroke:#2F9AD7;stroke-width:2;stroke-miterlimit:10;}
	.st1{fill:#2F9AD7;}
	.st2{fill:none;stroke:#878787;stroke-width:2;stroke-linecap:round;stroke-linejoin:round;stroke-miterlimit:10;}
	.st3{fill:none;stroke:#878787;stroke-width:2;stroke-miterlimit:10;stroke-dasharray:1.0082,12.0983;}
</style>
<path class="st0" d="M15.9,1C7.7,1,1,7.7,1,15.9c0,8.2,6.7,14.9,14.9,14.9c8.2,0,14.9-6.7,14.9-14.9C30.8,7.7,24.1,1,15.9,1z"/>
<g>
	<path class="st1" d="M20.2,21.1h-7.9v-1.7l2.8-2.9c0.8-0.9,1.4-1.5,1.6-1.8c0.3-0.3,0.4-0.6,0.6-0.9c0.1-0.3,0.2-0.6,0.2-0.9
		c0-0.5-0.1-0.8-0.4-1c-0.3-0.2-0.6-0.3-1-0.3c-0.4,0-0.9,0.1-1.3,0.3c-0.4,0.2-0.8,0.5-1.3,0.9l-1.3-1.5c0.6-0.5,1-0.8,1.4-1
		c0.4-0.2,0.8-0.3,1.2-0.5c0.4-0.1,0.9-0.2,1.5-0.2c0.7,0,1.3,0.1,1.9,0.4c0.5,0.3,1,0.6,1.3,1.1c0.3,0.5,0.4,1,0.4,1.6
		c0,0.5-0.1,1-0.3,1.5c-0.2,0.5-0.5,0.9-0.9,1.4c-0.4,0.5-1.1,1.2-2,2.1l-1.5,1.4v0.1h4.9V21.1z"/>
</g>
<path class="st2" d="M32.3,15.6c1.8-0.5,3.7-0.7,5.7-0.7c12.7,0,23,10.3,23,23c0,12.7-10.3,23-23,23c-12.7,0-23-10.3-23-23
	c0-1.9,0.2-3.8,0.7-5.5"/>
<path class="st2" d="M32.1,19.7c1.9-0.6,3.9-1,6-1c10.6,0,19.1,8.6,19.1,19.1C57.1,48.4,48.6,57,38,57c-10.6,0-19.1-8.6-19.1-19.1
	c0-2,0.3-4,0.9-5.8"/>
<g>
	<ellipse transform="matrix(0.1342 -0.991 0.991 0.1342 -4.6078 70.4723)" class="st3" cx="38" cy="37.9" rx="14.6" ry="14.6"/>
</g>
<rect x="36.6" y="9.3" class="st2" width="2.8" height="5.6"/>
<rect x="53.3" y="19.4" transform="matrix(0.7074 -0.7068 0.7068 0.7074 1.9181 44.8911)" class="st2" width="3.7" height="1.4"/>
<path class="st2" d="M59.6,20.5c-0.4,0.4-1,0.4-1.4,0l-3.4-3.4c-0.4-0.4-0.4-1,0-1.4l0,0c0.4-0.4,1-0.4,1.4,0l3.4,3.4
	C59.9,19.6,59.9,20.2,59.6,20.5L59.6,20.5z"/>
<path class="st2" d="M40.6,11.7c1.3-0.8,2.1-2.3,2.1-3.9c0-2.6-2.1-4.6-4.6-4.6c-2.6,0-4.6,2.1-4.6,4.6c0,1.6,0.8,3,2.1,3.9"/>
<circle class="st2" cx="38" cy="39.2" r="2.5"/>
<line class="st2" x1="47.1" y1="30" x2="34.8" y2="42.4"/>
</svg>
