<?xml version="1.0" encoding="utf-8"?>
<!-- Generator: Adobe Illustrator 20.1.0, SVG Export Plug-In . SVG Version: 6.00 Build 0)  -->
<svg version="1.1" id="Layer_1" xmlns="http://www.w3.org/2000/svg" xmlns:xlink="http://www.w3.org/1999/xlink" x="0px" y="0px"
	 viewBox="0 0 61 62.4" style="enable-background:new 0 0 61 62.4;" xml:space="preserve">
<style type="text/css">
	.st0{fill:none;stroke:#878787;stroke-width:2;stroke-linecap:round;stroke-linejoin:round;stroke-miterlimit:10;}
	.st1{fill:none;stroke:#2F9AD7;stroke-width:2;stroke-miterlimit:10;}
	.st2{fill:#2F9AD7;}
</style>
<g>
	<g>
		<path class="st0" d="M28,45.7l24-0.9c2.2-0.1,4.5-1.9,5.1-4l2.7-9.1c0.6-2.1-0.7-3.8-2.9-3.8H29.8"/>
	</g>
	<g>
		<path class="st0" d="M23.3,32.6l5.5,15.7c0.7,2.1,3.1,3.8,5.3,3.8h19.3"/>
	</g>
	<circle class="st0" cx="53.2" cy="56.7" r="4.6"/>
	<circle class="st0" cx="29.8" cy="56.7" r="4.6"/>
</g>
<path class="st1" d="M16.3,1C7.9,1,1,7.9,1,16.3c0,8.5,6.9,15.3,15.3,15.3c8.5,0,15.3-6.9,15.3-15.3C31.7,7.9,24.8,1,16.3,1z"/>
<g>
	<path class="st2" d="M18.7,23.3h-2.5v-6.7l0-1.1l0-1.2c-0.4,0.4-0.7,0.7-0.9,0.8l-1.3,1.1L13,14.6l3.8-3h2V23.3z"/>
</g>
</svg>
