<?xml version="1.0" encoding="utf-8"?>
<!-- Generator: Adobe Illustrator 20.1.0, SVG Export Plug-In . SVG Version: 6.00 Build 0)  -->
<svg version="1.1" id="Layer_1" xmlns="http://www.w3.org/2000/svg" xmlns:xlink="http://www.w3.org/1999/xlink" x="0px" y="0px"
	 viewBox="0 0 62 60.3" style="enable-background:new 0 0 62 60.3;" xml:space="preserve">
<style type="text/css">
	.st0{fill:none;stroke:#2F9AD7;stroke-width:2;stroke-miterlimit:10;}
	.st1{fill:#2F9AD7;}
	.st2{fill:none;stroke:#878787;stroke-width:2;stroke-linecap:round;stroke-linejoin:round;stroke-miterlimit:10;}
</style>
<path class="st0" d="M15.4,1C7.4,1,1,7.4,1,15.4c0,7.9,6.4,14.4,14.4,14.4c7.9,0,14.4-6.4,14.4-14.4C29.8,7.4,23.3,1,15.4,1z"/>
<g>
	<path class="st1" d="M19.1,11.9c0,0.7-0.2,1.3-0.6,1.7c-0.4,0.5-1,0.8-1.7,1v0c0.9,0.1,1.5,0.4,2,0.8c0.5,0.4,0.7,1,0.7,1.7
		c0,1.1-0.4,1.9-1.1,2.5c-0.8,0.6-1.9,0.9-3.3,0.9c-1.2,0-2.2-0.2-3.2-0.6v-2c0.4,0.2,0.9,0.4,1.4,0.5c0.5,0.1,1,0.2,1.5,0.2
		c0.8,0,1.3-0.1,1.7-0.4c0.4-0.3,0.5-0.7,0.5-1.2c0-0.5-0.2-0.9-0.6-1.1c-0.4-0.2-1.1-0.3-2-0.3h-0.8v-1.8h0.8
		c0.8,0,1.5-0.1,1.9-0.3c0.4-0.2,0.6-0.6,0.6-1.1c0-0.8-0.5-1.2-1.6-1.2c-0.4,0-0.7,0.1-1.1,0.2c-0.4,0.1-0.8,0.3-1.2,0.6l-1.1-1.6
		c1-0.7,2.2-1.1,3.6-1.1c1.1,0,2,0.2,2.7,0.7C18.8,10.4,19.1,11.1,19.1,11.9z"/>
</g>
<g>
	<polyline class="st2" points="8.8,43.7 8.8,51.1 30.8,59.3 30.8,41.3 10.4,33.8 	"/>
	<polyline class="st2" points="54.4,44.7 54.4,50.3 30.8,59.3 30.8,41.3 54.4,33.8 	"/>
	<polyline class="st2" points="32.4,29.7 32.4,29.7 10.4,33.8 5.2,40.8 10.4,42.8 26.7,49 30.8,41.3 37.4,51 54.4,44.7 61,42.7 
		54.4,33.8 42,31.4 	"/>
	<g>
		<path class="st2" d="M41,4.3c0,0,3.8,2.1,5,4.5c1.2,2.3,7.4,19.8,7.4,19.8l-1.8,0.9L46.1,17c0,0-0.8-0.6-1.5-0.3
			c-0.6,0.3-1.7,2.4-2,3.6c-0.3,1.2-0.8,7.7-0.7,9.6c0.2,1.9,0.3,5.2-6.7,7.4c-6.9,2.2-8.3-0.8-8.5-3.7c-0.2-3,6.7-0.6,9.2-10.7
			C38.5,12.9,41,4.3,41,4.3z"/>
		<path class="st2" d="M41,4.3c0,0-1.8,24.4-7.3,27c-1.5,0.7-2.8-0.6-2.8-0.6"/>
		<line class="st2" x1="52.7" y1="27.2" x2="51" y2="28"/>
		<path class="st2" d="M42,30.5c0,0-1,2.5-5.2,4.4c-4.2,1.9-7.6,2.1-9.6,0.9"/>
	</g>
</g>
</svg>
