  0
SECTION
  2
HEADER
  9
$ACADVER
  1
AC1009
  9
$INSUNITS
 70
     1
  0
ENDSEC
  0
SECTION
  2
TABLES
  0
TABLE
  2
LAYER
 70
     8
  0
LAYER
  2
0
 62
     7
 70
0
  6
CONTINUOUS
  0
LAYER
  2
1
 62
     1
 70
0
  6
CONTINUOUS
  0
LAYER
  2
2
 62
     2
 70
0
  6
CONTINUOUS
  0
LAYER
  2
3
 62
     3
 70
0
  6
CONTINUOUS
  0
LAYER
  2
4
 62
     4
 70
0
  6
CONTINUOUS
  0
LAYER
  2
5
 62
     5
 70
0
  6
CONTINUOUS
  0
LAYER
  2
6
 62
     6
 70
0
  6
CONTINUOUS
  0
LAYER
  2
7
 62
     7
 70
0
  6
CONTINUOUS
  0
ENDTAB
  0
TABLE
  2
STYLE
 70
     1
  0
STYLE
 70
     0
  2
STANDARD
  3
TXT
 40
0.00
 41
1.00
 42
1.00
 50
0.00
 71
     0
  0
ENDTAB
  0
ENDSEC
  0
SECTION
  2
BLOCKS
  0
BLOCK
  8
0
  2
EPAD
 70
0
 10
0.0
 20
0.0
  0
POLYLINE
  8
0
 66
1
 70
1
 40
0.5
 41
0.5
  0
VERTEX
  8
0
 10
-0.25
 20
0.0
 42
1.0
  0
VERTEX
  8
0
 10
0.25
 20
0.0
 42
1.0
  0
SEQEND
  8
0
  0
ENDBLK
  8
0
  0
BLOCK
  8
0
  2
RPAD
 70
0
 10
0.0
 20
0.0
  0
TRACE
  8
0
 10
-0.5
 20
-0.5
 11
-0.5
 21
0.5
 12
0.5
 22
-0.5
 13
0.5
 23
0.5
  0
ENDBLK
  8
0
  0
ENDSEC
0
SECTION
2
ENTITIES
0
POLYLINE
8
0
66
1
40
0.008000
41
0.008000
0
VERTEX
8
0
10
0.200787
20
0.400000
0
VERTEX
8
0
10
1.550787
20
0.400000
0
VERTEX
8
0
10
1.550787
20
0.600000
0
VERTEX
8
0
10
0.200787
20
0.600000
0
SEQEND
8
0
0
POLYLINE
8
0
66
1
40
0.008000
41
0.008000
0
VERTEX
8
0
10
0.200787
20
0.400000
0
VERTEX
8
0
10
0.200787
20
0.450000
0
SEQEND
8
0
0
POLYLINE
8
0
66
1
40
0.008000
41
0.008000
0
VERTEX
8
0
10
0.200787
20
0.600000
0
VERTEX
8
0
10
0.200787
20
0.550000
0
SEQEND
8
0
0
POLYLINE
8
0
66
1
40
0.008000
41
0.008000
0
VERTEX
8
0
10
0.200787
20
0.450000
0
VERTEX
8
0
10
0.211011
20
0.450995
0
VERTEX
8
0
10
0.220465
20
0.453857
0
VERTEX
8
0
10
0.228967
20
0.458405
0
VERTEX
8
0
10
0.236334
20
0.464453
0
VERTEX
8
0
10
0.242383
20
0.471820
0
VERTEX
8
0
10
0.246930
20
0.480322
0
VERTEX
8
0
10
0.249793
20
0.489777
0
VERTEX
8
0
10
0.250787
20
0.500000
0
SEQEND
8
0
0
POLYLINE
8
0
66
1
40
0.008000
41
0.008000
0
VERTEX
8
0
10
0.200787
20
0.550000
0
VERTEX
8
0
10
0.211011
20
0.549005
0
VERTEX
8
0
10
0.220465
20
0.546143
0
VERTEX
8
0
10
0.228967
20
0.541596
0
VERTEX
8
0
10
0.236334
20
0.535547
0
VERTEX
8
0
10
0.242383
20
0.528180
0
VERTEX
8
0
10
0.246930
20
0.519678
0
VERTEX
8
0
10
0.249793
20
0.510224
0
VERTEX
8
0
10
0.250787
20
0.500000
0
SEQEND
8
0
0
CIRCLE
8
0
10
0.220787
20
0.416000
40
0.002828
0
TEXT
8
0
10
0.190787
20
0.450000
40
0.048000
41
1.041667
50
90.000000
1
U1
0
POLYLINE
8
0
66
1
40
0.008000
41
0.008000
0
VERTEX
8
0
10
0.925000
20
-0.100000
0
VERTEX
8
0
10
0.925000
20
0.200000
0
VERTEX
8
0
10
0.975000
20
0.250000
0
VERTEX
8
0
10
1.075000
20
0.250000
0
VERTEX
8
0
10
1.125000
20
0.200000
0
VERTEX
8
0
10
1.125000
20
-0.100000
0
VERTEX
8
0
10
1.075000
20
-0.150000
0
VERTEX
8
0
10
0.975000
20
-0.150000
0
VERTEX
8
0
10
0.925000
20
-0.100000
0
SEQEND
8
0
0
TEXT
8
0
10
0.915000
20
0.000000
40
0.048000
41
1.041667
50
90.000000
1
X1
0
POLYLINE
8
0
66
1
40
0.008000
41
0.008000
0
VERTEX
8
0
10
0.862795
20
-0.050000
0
VERTEX
8
0
10
0.861190
20
-0.058050
0
VERTEX
8
0
10
0.856413
20
-0.065494
0
VERTEX
8
0
10
0.848522
20
-0.072189
0
VERTEX
8
0
10
0.837574
20
-0.077990
0
VERTEX
8
0
10
0.823627
20
-0.082752
0
VERTEX
8
0
10
0.806739
20
-0.086333
0
VERTEX
8
0
10
0.786967
20
-0.088587
0
VERTEX
8
0
10
0.764370
20
-0.089370
0
SEQEND
8
0
0
POLYLINE
8
0
66
1
40
0.008000
41
0.008000
0
VERTEX
8
0
10
0.685630
20
-0.050000
0
VERTEX
8
0
10
0.687197
20
-0.041950
0
VERTEX
8
0
10
0.691705
20
-0.034506
0
VERTEX
8
0
10
0.698865
20
-0.027811
0
VERTEX
8
0
10
0.708391
20
-0.022010
0
VERTEX
8
0
10
0.719992
20
-0.017248
0
VERTEX
8
0
10
0.733381
20
-0.013667
0
VERTEX
8
0
10
0.748270
20
-0.011413
0
VERTEX
8
0
10
0.764370
20
-0.010630
0
SEQEND
8
0
0
POLYLINE
8
0
66
1
40
0.008000
41
0.008000
0
VERTEX
8
0
10
0.862795
20
-0.050000
0
VERTEX
8
0
10
0.861190
20
-0.041950
0
VERTEX
8
0
10
0.856413
20
-0.034506
0
VERTEX
8
0
10
0.848522
20
-0.027811
0
VERTEX
8
0
10
0.837574
20
-0.022010
0
VERTEX
8
0
10
0.823627
20
-0.017248
0
VERTEX
8
0
10
0.806739
20
-0.013667
0
VERTEX
8
0
10
0.786967
20
-0.011413
0
VERTEX
8
0
10
0.764370
20
-0.010630
0
SEQEND
8
0
0
POLYLINE
8
0
66
1
40
0.008000
41
0.008000
0
VERTEX
8
0
10
0.685630
20
-0.050000
0
VERTEX
8
0
10
0.687197
20
-0.058050
0
VERTEX
8
0
10
0.691705
20
-0.065494
0
VERTEX
8
0
10
0.698865
20
-0.072189
0
VERTEX
8
0
10
0.708391
20
-0.077990
0
VERTEX
8
0
10
0.719992
20
-0.082752
0
VERTEX
8
0
10
0.733381
20
-0.086333
0
VERTEX
8
0
10
0.748270
20
-0.088587
0
VERTEX
8
0
10
0.764370
20
-0.089370
0
SEQEND
8
0
0
TEXT
8
0
10
0.724213
20
-0.147370
40
0.048000
41
1.041667
1
C1
0
POLYLINE
8
0
66
1
40
0.008000
41
0.008000
0
VERTEX
8
0
10
0.862795
20
0.150000
0
VERTEX
8
0
10
0.861190
20
0.141950
0
VERTEX
8
0
10
0.856413
20
0.134506
0
VERTEX
8
0
10
0.848522
20
0.127811
0
VERTEX
8
0
10
0.837574
20
0.122010
0
VERTEX
8
0
10
0.823627
20
0.117248
0
VERTEX
8
0
10
0.806739
20
0.113667
0
VERTEX
8
0
10
0.786967
20
0.111413
0
VERTEX
8
0
10
0.764370
20
0.110630
0
SEQEND
8
0
0
POLYLINE
8
0
66
1
40
0.008000
41
0.008000
0
VERTEX
8
0
10
0.685630
20
0.150000
0
VERTEX
8
0
10
0.687197
20
0.158050
0
VERTEX
8
0
10
0.691705
20
0.165494
0
VERTEX
8
0
10
0.698865
20
0.172189
0
VERTEX
8
0
10
0.708391
20
0.177990
0
VERTEX
8
0
10
0.719992
20
0.182752
0
VERTEX
8
0
10
0.733381
20
0.186333
0
VERTEX
8
0
10
0.748270
20
0.188587
0
VERTEX
8
0
10
0.764370
20
0.189370
0
SEQEND
8
0
0
POLYLINE
8
0
66
1
40
0.008000
41
0.008000
0
VERTEX
8
0
10
0.862795
20
0.150000
0
VERTEX
8
0
10
0.861190
20
0.158050
0
VERTEX
8
0
10
0.856413
20
0.165494
0
VERTEX
8
0
10
0.848522
20
0.172189
0
VERTEX
8
0
10
0.837574
20
0.177990
0
VERTEX
8
0
10
0.823627
20
0.182752
0
VERTEX
8
0
10
0.806739
20
0.186333
0
VERTEX
8
0
10
0.786967
20
0.188587
0
VERTEX
8
0
10
0.764370
20
0.189370
0
SEQEND
8
0
0
POLYLINE
8
0
66
1
40
0.008000
41
0.008000
0
VERTEX
8
0
10
0.685630
20
0.150000
0
VERTEX
8
0
10
0.687197
20
0.141950
0
VERTEX
8
0
10
0.691705
20
0.134506
0
VERTEX
8
0
10
0.698865
20
0.127811
0
VERTEX
8
0
10
0.708391
20
0.122010
0
VERTEX
8
0
10
0.719992
20
0.117248
0
VERTEX
8
0
10
0.733381
20
0.113667
0
VERTEX
8
0
10
0.748270
20
0.111413
0
VERTEX
8
0
10
0.764370
20
0.110630
0
SEQEND
8
0
0
TEXT
8
0
10
0.724213
20
0.052630
40
0.048000
41
1.041667
1
C2
0
POLYLINE
8
0
66
1
40
0.008000
41
0.008000
0
VERTEX
8
0
10
1.300000
20
0.850000
0
VERTEX
8
0
10
1.350000
20
0.850000
0
VERTEX
8
0
10
1.350000
20
0.950000
0
VERTEX
8
0
10
1.300000
20
0.950000
0
VERTEX
8
0
10
1.300000
20
0.850000
0
SEQEND
8
0
0
POLYLINE
8
0
66
1
40
0.008000
41
0.008000
0
VERTEX
8
0
10
1.325000
20
0.800000
0
VERTEX
8
0
10
1.325000
20
0.800000
0
VERTEX
8
0
10
1.325000
20
0.850000
0
VERTEX
8
0
10
1.325000
20
0.850000
0
VERTEX
8
0
10
1.325000
20
0.800000
0
SEQEND
8
0
0
POLYLINE
8
0
66
1
40
0.008000
41
0.008000
0
VERTEX
8
0
10
1.325000
20
0.950000
0
VERTEX
8
0
10
1.325000
20
0.950000
0
VERTEX
8
0
10
1.325000
20
1.000000
0
VERTEX
8
0
10
1.325000
20
1.000000
0
VERTEX
8
0
10
1.325000
20
0.950000
0
SEQEND
8
0
0
TEXT
8
0
10
1.290000
20
0.850000
40
0.048000
41
1.041667
50
90.000000
1
R8
0
POLYLINE
8
0
66
1
40
0.008000
41
0.008000
0
VERTEX
8
0
10
1.200000
20
0.850000
0
VERTEX
8
0
10
1.250000
20
0.850000
0
VERTEX
8
0
10
1.250000
20
0.950000
0
VERTEX
8
0
10
1.200000
20
0.950000
0
VERTEX
8
0
10
1.200000
20
0.850000
0
SEQEND
8
0
0
POLYLINE
8
0
66
1
40
0.008000
41
0.008000
0
VERTEX
8
0
10
1.225000
20
0.800000
0
VERTEX
8
0
10
1.225000
20
0.800000
0
VERTEX
8
0
10
1.225000
20
0.850000
0
VERTEX
8
0
10
1.225000
20
0.850000
0
VERTEX
8
0
10
1.225000
20
0.800000
0
SEQEND
8
0
0
POLYLINE
8
0
66
1
40
0.008000
41
0.008000
0
VERTEX
8
0
10
1.225000
20
0.950000
0
VERTEX
8
0
10
1.225000
20
0.950000
0
VERTEX
8
0
10
1.225000
20
1.000000
0
VERTEX
8
0
10
1.225000
20
1.000000
0
VERTEX
8
0
10
1.225000
20
0.950000
0
SEQEND
8
0
0
TEXT
8
0
10
1.190000
20
0.850000
40
0.048000
41
1.041667
50
90.000000
1
R9
0
POLYLINE
8
0
66
1
40
0.008000
41
0.008000
0
VERTEX
8
0
10
1.100000
20
0.850000
0
VERTEX
8
0
10
1.150000
20
0.850000
0
VERTEX
8
0
10
1.150000
20
0.950000
0
VERTEX
8
0
10
1.100000
20
0.950000
0
VERTEX
8
0
10
1.100000
20
0.850000
0
SEQEND
8
0
0
POLYLINE
8
0
66
1
40
0.008000
41
0.008000
0
VERTEX
8
0
10
1.125000
20
0.800000
0
VERTEX
8
0
10
1.125000
20
0.800000
0
VERTEX
8
0
10
1.125000
20
0.850000
0
VERTEX
8
0
10
1.125000
20
0.850000
0
VERTEX
8
0
10
1.125000
20
0.800000
0
SEQEND
8
0
0
POLYLINE
8
0
66
1
40
0.008000
41
0.008000
0
VERTEX
8
0
10
1.125000
20
0.950000
0
VERTEX
8
0
10
1.125000
20
0.950000
0
VERTEX
8
0
10
1.125000
20
1.000000
0
VERTEX
8
0
10
1.125000
20
1.000000
0
VERTEX
8
0
10
1.125000
20
0.950000
0
SEQEND
8
0
0
TEXT
8
0
10
1.090000
20
0.825000
40
0.048000
41
1.041667
50
90.000000
1
R10
0
CIRCLE
8
0
10
1.475000
20
1.200000
40
0.000000
0
CIRCLE
8
0
10
1.475000
20
1.200000
40
0.100000
0
POLYLINE
8
0
66
1
40
0.008000
41
0.008000
0
VERTEX
8
0
10
1.375000
20
1.075000
0
VERTEX
8
0
10
1.375000
20
1.125000
0
SEQEND
8
0
0
POLYLINE
8
0
66
1
40
0.008000
41
0.008000
0
VERTEX
8
0
10
1.350000
20
1.100000
0
VERTEX
8
0
10
1.400000
20
1.100000
0
SEQEND
8
0
0
TEXT
8
0
10
1.340000
20
1.137500
40
0.048000
41
1.041667
50
90.000000
1
D4
0
CIRCLE
8
0
10
1.225000
20
1.200000
40
0.000000
0
CIRCLE
8
0
10
1.225000
20
1.200000
40
0.100000
0
POLYLINE
8
0
66
1
40
0.008000
41
0.008000
0
VERTEX
8
0
10
1.125000
20
1.075000
0
VERTEX
8
0
10
1.125000
20
1.125000
0
SEQEND
8
0
0
POLYLINE
8
0
66
1
40
0.008000
41
0.008000
0
VERTEX
8
0
10
1.100000
20
1.100000
0
VERTEX
8
0
10
1.150000
20
1.100000
0
SEQEND
8
0
0
TEXT
8
0
10
1.090000
20
1.137500
40
0.048000
41
1.041667
50
90.000000
1
D5
0
CIRCLE
8
0
10
0.975000
20
1.200000
40
0.000000
0
CIRCLE
8
0
10
0.975000
20
1.200000
40
0.100000
0
POLYLINE
8
0
66
1
40
0.008000
41
0.008000
0
VERTEX
8
0
10
0.875000
20
1.075000
0
VERTEX
8
0
10
0.875000
20
1.125000
0
SEQEND
8
0
0
POLYLINE
8
0
66
1
40
0.008000
41
0.008000
0
VERTEX
8
0
10
0.850000
20
1.100000
0
VERTEX
8
0
10
0.900000
20
1.100000
0
SEQEND
8
0
0
TEXT
8
0
10
0.840000
20
1.137500
40
0.048000
41
1.041667
50
90.000000
1
D6
0
POLYLINE
8
0
66
1
40
0.008000
41
0.008000
0
VERTEX
8
0
10
-0.975000
20
0.885645
0
VERTEX
8
0
10
-0.975000
20
1.285645
0
SEQEND
8
0
0
POLYLINE
8
0
66
1
40
0.008000
41
0.008000
0
VERTEX
8
0
10
-1.575000
20
0.885645
0
VERTEX
8
0
10
-1.575000
20
1.285645
0
SEQEND
8
0
0
POLYLINE
8
0
66
1
40
0.008000
41
0.008000
0
VERTEX
8
0
10
-0.975000
20
1.285645
0
VERTEX
8
0
10
-1.575000
20
1.285645
0
SEQEND
8
0
0
POLYLINE
8
0
66
1
40
0.008000
41
0.008000
0
VERTEX
8
0
10
-1.575000
20
0.885645
0
VERTEX
8
0
10
-0.975000
20
0.885645
0
SEQEND
8
0
0
TEXT
8
0
10
-1.325000
20
0.827645
40
0.048000
41
1.041667
1
J2
0
POLYLINE
8
0
66
1
40
0.008000
41
0.008000
0
VERTEX
8
0
10
-1.602165
20
-0.062780
0
VERTEX
8
0
10
-0.956496
20
-0.062780
0
VERTEX
8
0
10
-0.956496
20
0.823047
0
VERTEX
8
0
10
-1.602165
20
0.823047
0
VERTEX
8
0
10
-1.602165
20
-0.062780
0
SEQEND
8
0
0
TEXT
8
0
10
-1.612165
20
0.305133
40
0.048000
41
1.041667
50
90.000000
1
RL1
0
POLYLINE
8
0
66
1
40
0.008000
41
0.008000
0
VERTEX
8
0
10
-1.725000
20
0.375015
0
VERTEX
8
0
10
-1.716950
20
0.373410
0
VERTEX
8
0
10
-1.709506
20
0.368633
0
VERTEX
8
0
10
-1.702811
20
0.360742
0
VERTEX
8
0
10
-1.697010
20
0.349794
0
VERTEX
8
0
10
-1.692248
20
0.335847
0
VERTEX
8
0
10
-1.688667
20
0.318959
0
VERTEX
8
0
10
-1.686413
20
0.299187
0
VERTEX
8
0
10
-1.685630
20
0.276590
0
SEQEND
8
0
0
POLYLINE
8
0
66
1
40
0.008000
41
0.008000
0
VERTEX
8
0
10
-1.725000
20
0.197850
0
VERTEX
8
0
10
-1.733050
20
0.199417
0
VERTEX
8
0
10
-1.740494
20
0.203925
0
VERTEX
8
0
10
-1.747189
20
0.211085
0
VERTEX
8
0
10
-1.752990
20
0.220611
0
VERTEX
8
0
10
-1.757752
20
0.232212
0
VERTEX
8
0
10
-1.761333
20
0.245602
0
VERTEX
8
0
10
-1.763587
20
0.260490
0
VERTEX
8
0
10
-1.764370
20
0.276590
0
SEQEND
8
0
0
POLYLINE
8
0
66
1
40
0.008000
41
0.008000
0
VERTEX
8
0
10
-1.725000
20
0.375015
0
VERTEX
8
0
10
-1.733050
20
0.373410
0
VERTEX
8
0
10
-1.740494
20
0.368633
0
VERTEX
8
0
10
-1.747189
20
0.360742
0
VERTEX
8
0
10
-1.752990
20
0.349794
0
VERTEX
8
0
10
-1.757752
20
0.335847
0
VERTEX
8
0
10
-1.761333
20
0.318959
0
VERTEX
8
0
10
-1.763587
20
0.299187
0
VERTEX
8
0
10
-1.764370
20
0.276590
0
SEQEND
8
0
0
POLYLINE
8
0
66
1
40
0.008000
41
0.008000
0
VERTEX
8
0
10
-1.725000
20
0.197850
0
VERTEX
8
0
10
-1.716950
20
0.199417
0
VERTEX
8
0
10
-1.709506
20
0.203925
0
VERTEX
8
0
10
-1.702811
20
0.211085
0
VERTEX
8
0
10
-1.697010
20
0.220611
0
VERTEX
8
0
10
-1.692248
20
0.232212
0
VERTEX
8
0
10
-1.688667
20
0.245602
0
VERTEX
8
0
10
-1.686413
20
0.260490
0
VERTEX
8
0
10
-1.685630
20
0.276590
0
SEQEND
8
0
0
TEXT
8
0
10
-1.627630
20
0.236433
40
0.048000
41
1.041667
50
90.000000
1
C3
0
POLYLINE
8
0
66
1
40
0.008000
41
0.008000
0
VERTEX
8
0
10
-0.825000
20
0.375015
0
VERTEX
8
0
10
-0.816950
20
0.373410
0
VERTEX
8
0
10
-0.809506
20
0.368633
0
VERTEX
8
0
10
-0.802811
20
0.360742
0
VERTEX
8
0
10
-0.797010
20
0.349794
0
VERTEX
8
0
10
-0.792248
20
0.335847
0
VERTEX
8
0
10
-0.788667
20
0.318959
0
VERTEX
8
0
10
-0.786413
20
0.299187
0
VERTEX
8
0
10
-0.785630
20
0.276590
0
SEQEND
8
0
0
POLYLINE
8
0
66
1
40
0.008000
41
0.008000
0
VERTEX
8
0
10
-0.825000
20
0.197850
0
VERTEX
8
0
10
-0.833050
20
0.199417
0
VERTEX
8
0
10
-0.840494
20
0.203925
0
VERTEX
8
0
10
-0.847189
20
0.211085
0
VERTEX
8
0
10
-0.852990
20
0.220611
0
VERTEX
8
0
10
-0.857752
20
0.232212
0
VERTEX
8
0
10
-0.861333
20
0.245602
0
VERTEX
8
0
10
-0.863587
20
0.260490
0
VERTEX
8
0
10
-0.864370
20
0.276590
0
SEQEND
8
0
0
POLYLINE
8
0
66
1
40
0.008000
41
0.008000
0
VERTEX
8
0
10
-0.825000
20
0.375015
0
VERTEX
8
0
10
-0.833050
20
0.373410
0
VERTEX
8
0
10
-0.840494
20
0.368633
0
VERTEX
8
0
10
-0.847189
20
0.360742
0
VERTEX
8
0
10
-0.852990
20
0.349794
0
VERTEX
8
0
10
-0.857752
20
0.335847
0
VERTEX
8
0
10
-0.861333
20
0.318959
0
VERTEX
8
0
10
-0.863587
20
0.299187
0
VERTEX
8
0
10
-0.864370
20
0.276590
0
SEQEND
8
0
0
POLYLINE
8
0
66
1
40
0.008000
41
0.008000
0
VERTEX
8
0
10
-0.825000
20
0.197850
0
VERTEX
8
0
10
-0.816950
20
0.199417
0
VERTEX
8
0
10
-0.809506
20
0.203925
0
VERTEX
8
0
10
-0.802811
20
0.211085
0
VERTEX
8
0
10
-0.797010
20
0.220611
0
VERTEX
8
0
10
-0.792248
20
0.232212
0
VERTEX
8
0
10
-0.788667
20
0.245602
0
VERTEX
8
0
10
-0.786413
20
0.260490
0
VERTEX
8
0
10
-0.785630
20
0.276590
0
SEQEND
8
0
0
TEXT
8
0
10
-0.727630
20
0.236433
40
0.048000
41
1.041667
50
90.000000
1
C4
0
POLYLINE
8
0
66
1
40
0.008000
41
0.008000
0
VERTEX
8
0
10
-1.725000
20
0.885645
0
VERTEX
8
0
10
-1.725000
20
0.835645
0
SEQEND
8
0
0
POLYLINE
8
0
66
1
40
0.008000
41
0.008000
0
VERTEX
8
0
10
-1.750000
20
0.535645
0
VERTEX
8
0
10
-1.700000
20
0.535645
0
VERTEX
8
0
10
-1.700000
20
0.835645
0
VERTEX
8
0
10
-1.750000
20
0.835645
0
VERTEX
8
0
10
-1.750000
20
0.535645
0
SEQEND
8
0
0
POLYLINE
8
0
66
1
40
0.008000
41
0.008000
0
VERTEX
8
0
10
-1.725000
20
0.535645
0
VERTEX
8
0
10
-1.725000
20
0.485645
0
SEQEND
8
0
0
TEXT
8
0
10
-1.642000
20
0.635645
40
0.048000
41
1.041667
50
90.000000
1
R2
0
POLYLINE
8
0
66
1
40
0.008000
41
0.008000
0
VERTEX
8
0
10
-0.825000
20
0.885645
0
VERTEX
8
0
10
-0.825000
20
0.835645
0
SEQEND
8
0
0
POLYLINE
8
0
66
1
40
0.008000
41
0.008000
0
VERTEX
8
0
10
-0.850000
20
0.535645
0
VERTEX
8
0
10
-0.800000
20
0.535645
0
VERTEX
8
0
10
-0.800000
20
0.835645
0
VERTEX
8
0
10
-0.850000
20
0.835645
0
VERTEX
8
0
10
-0.850000
20
0.535645
0
SEQEND
8
0
0
POLYLINE
8
0
66
1
40
0.008000
41
0.008000
0
VERTEX
8
0
10
-0.825000
20
0.535645
0
VERTEX
8
0
10
-0.825000
20
0.485645
0
SEQEND
8
0
0
TEXT
8
0
10
-0.742000
20
0.635645
40
0.048000
41
1.041667
50
90.000000
1
R3
0
POLYLINE
8
0
66
1
40
0.008000
41
0.008000
0
VERTEX
8
0
10
-1.727000
20
-0.327000
0
VERTEX
8
0
10
-1.523000
20
-0.327000
0
VERTEX
8
0
10
-1.523000
20
-0.222000
0
VERTEX
8
0
10
-1.727000
20
-0.222000
0
VERTEX
8
0
10
-1.727000
20
-0.327000
0
SEQEND
8
0
0
POLYLINE
8
0
66
1
40
0.008000
41
0.008000
0
VERTEX
8
0
10
-1.695000
20
-0.223000
0
VERTEX
8
0
10
-1.695000
20
-0.326000
0
SEQEND
8
0
0
POLYLINE
8
0
66
1
40
0.008000
41
0.008000
0
VERTEX
8
0
10
-1.755000
20
-0.275000
0
VERTEX
8
0
10
-1.727000
20
-0.275000
0
SEQEND
8
0
0
POLYLINE
8
0
66
1
40
0.008000
41
0.008000
0
VERTEX
8
0
10
-1.523000
20
-0.275000
0
VERTEX
8
0
10
-1.495000
20
-0.275000
0
SEQEND
8
0
0
TEXT
8
0
10
-1.675000
20
-0.212000
40
0.048000
41
1.041667
1
D1
0
POLYLINE
8
0
66
1
40
0.008000
41
0.008000
0
VERTEX
8
0
10
-1.300000
20
-0.200355
0
VERTEX
8
0
10
-1.150000
20
-0.200355
0
VERTEX
8
0
10
-1.150000
20
-0.128355
0
VERTEX
8
0
10
-1.300000
20
-0.128355
0
VERTEX
8
0
10
-1.300000
20
-0.200355
0
SEQEND
8
0
0
POLYLINE
8
0
66
1
40
0.008000
41
0.008000
0
VERTEX
8
0
10
-1.175000
20
-0.199355
0
VERTEX
8
0
10
-1.175000
20
-0.129355
0
SEQEND
8
0
0
POLYLINE
8
0
66
1
40
0.008000
41
0.008000
0
VERTEX
8
0
10
-1.300000
20
-0.164355
0
VERTEX
8
0
10
-1.365000
20
-0.164355
0
SEQEND
8
0
0
POLYLINE
8
0
66
1
40
0.008000
41
0.008000
0
VERTEX
8
0
10
-1.150000
20
-0.164355
0
VERTEX
8
0
10
-1.085000
20
-0.164355
0
SEQEND
8
0
0
TEXT
8
0
10
-1.275000
20
-0.258355
40
0.048000
41
1.041667
1
D2
0
POLYLINE
8
0
66
1
40
0.008000
41
0.008000
0
VERTEX
8
0
10
-0.100000
20
-0.200000
0
VERTEX
8
0
10
0.000000
20
-0.200000
0
VERTEX
8
0
10
0.000000
20
-0.150000
0
VERTEX
8
0
10
-0.100000
20
-0.150000
0
VERTEX
8
0
10
-0.100000
20
-0.200000
0
SEQEND
8
0
0
POLYLINE
8
0
66
1
40
0.008000
41
0.008000
0
VERTEX
8
0
10
0.000000
20
-0.175000
0
VERTEX
8
0
10
0.050000
20
-0.175000
0
VERTEX
8
0
10
0.050000
20
-0.175000
0
VERTEX
8
0
10
0.000000
20
-0.175000
0
VERTEX
8
0
10
0.000000
20
-0.175000
0
SEQEND
8
0
0
POLYLINE
8
0
66
1
40
0.008000
41
0.008000
0
VERTEX
8
0
10
-0.150000
20
-0.175000
0
VERTEX
8
0
10
-0.100000
20
-0.175000
0
VERTEX
8
0
10
-0.100000
20
-0.175000
0
VERTEX
8
0
10
-0.150000
20
-0.175000
0
VERTEX
8
0
10
-0.150000
20
-0.175000
0
SEQEND
8
0
0
TEXT
8
0
10
-0.100000
20
-0.258000
40
0.048000
41
1.041667
1
R1
0
POLYLINE
8
0
66
1
40
0.008000
41
0.008000
0
VERTEX
8
0
10
-0.875000
20
-0.200000
0
VERTEX
8
0
10
-0.725000
20
-0.200000
0
SEQEND
8
0
0
POLYLINE
8
0
66
1
40
0.008000
41
0.008000
0
VERTEX
8
0
10
-0.895000
20
-0.150000
0
VERTEX
8
0
10
-0.894141
20
-0.159326
0
VERTEX
8
0
10
-0.891875
20
-0.168359
0
VERTEX
8
0
10
-0.885000
20
-0.184375
0
VERTEX
8
0
10
-0.875000
20
-0.200000
0
SEQEND
8
0
0
POLYLINE
8
0
66
1
40
0.008000
41
0.008000
0
VERTEX
8
0
10
-0.895000
20
-0.150000
0
VERTEX
8
0
10
-0.894661
20
-0.129553
0
VERTEX
8
0
10
-0.890176
20
-0.110644
0
VERTEX
8
0
10
-0.881970
20
-0.093640
0
VERTEX
8
0
10
-0.870469
20
-0.078906
0
VERTEX
8
0
10
-0.856096
20
-0.066809
0
VERTEX
8
0
10
-0.839277
20
-0.057715
0
VERTEX
8
0
10
-0.820437
20
-0.051990
0
VERTEX
8
0
10
-0.800000
20
-0.050000
0
SEQEND
8
0
0
POLYLINE
8
0
66
1
40
0.008000
41
0.008000
0
VERTEX
8
0
10
-0.705000
20
-0.150000
0
VERTEX
8
0
10
-0.705859
20
-0.159326
0
VERTEX
8
0
10
-0.708125
20
-0.168359
0
VERTEX
8
0
10
-0.715000
20
-0.184375
0
VERTEX
8
0
10
-0.725000
20
-0.200000
0
SEQEND
8
0
0
POLYLINE
8
0
66
1
40
0.008000
41
0.008000
0
VERTEX
8
0
10
-0.705000
20
-0.150000
0
VERTEX
8
0
10
-0.705339
20
-0.129553
0
VERTEX
8
0
10
-0.709824
20
-0.110644
0
VERTEX
8
0
10
-0.718030
20
-0.093640
0
VERTEX
8
0
10
-0.729531
20
-0.078906
0
VERTEX
8
0
10
-0.743904
20
-0.066809
0
VERTEX
8
0
10
-0.760723
20
-0.057715
0
VERTEX
8
0
10
-0.779563
20
-0.051990
0
VERTEX
8
0
10
-0.800000
20
-0.050000
0
SEQEND
8
0
0
TEXT
8
0
10
-0.850000
20
-0.040000
40
0.048000
41
1.041667
1
Q1
0
POLYLINE
8
0
66
1
40
0.008000
41
0.008000
0
VERTEX
8
0
10
-1.968504
20
-1.377953
0
VERTEX
8
0
10
1.968504
20
-1.377953
0
VERTEX
8
0
10
1.968504
20
1.377953
0
VERTEX
8
0
10
-1.968504
20
1.377953
0
VERTEX
8
0
10
-1.968504
20
-1.377953
0
SEQEND
8
0
0
POLYLINE
8
0
66
1
40
0.008000
41
0.008000
0
VERTEX
8
0
10
0.025000
20
1.275000
0
VERTEX
8
0
10
0.025000
20
0.875000
0
SEQEND
8
0
0
POLYLINE
8
0
66
1
40
0.008000
41
0.008000
0
VERTEX
8
0
10
0.625000
20
1.275000
0
VERTEX
8
0
10
0.625000
20
0.875000
0
SEQEND
8
0
0
POLYLINE
8
0
66
1
40
0.008000
41
0.008000
0
VERTEX
8
0
10
0.025000
20
0.875000
0
VERTEX
8
0
10
0.625000
20
0.875000
0
SEQEND
8
0
0
POLYLINE
8
0
66
1
40
0.008000
41
0.008000
0
VERTEX
8
0
10
0.625000
20
1.275000
0
VERTEX
8
0
10
0.025000
20
1.275000
0
SEQEND
8
0
0
TEXT
8
0
10
0.275000
20
1.285000
40
0.048000
41
1.041667
1
J3
0
POLYLINE
8
0
66
1
40
0.008000
41
0.008000
0
VERTEX
8
0
10
-0.575000
20
1.275000
0
VERTEX
8
0
10
-0.575000
20
0.875000
0
SEQEND
8
0
0
POLYLINE
8
0
66
1
40
0.008000
41
0.008000
0
VERTEX
8
0
10
0.025000
20
1.275000
0
VERTEX
8
0
10
0.025000
20
0.875000
0
SEQEND
8
0
0
POLYLINE
8
0
66
1
40
0.008000
41
0.008000
0
VERTEX
8
0
10
-0.575000
20
0.875000
0
VERTEX
8
0
10
0.025000
20
0.875000
0
SEQEND
8
0
0
POLYLINE
8
0
66
1
40
0.008000
41
0.008000
0
VERTEX
8
0
10
0.025000
20
1.275000
0
VERTEX
8
0
10
-0.575000
20
1.275000
0
SEQEND
8
0
0
TEXT
8
0
10
-0.325000
20
1.285000
40
0.048000
41
1.041667
1
J5
0
POLYLINE
8
0
66
1
40
0.008000
41
0.008000
0
VERTEX
8
0
10
-1.575000
20
-0.875000
0
VERTEX
8
0
10
-1.575000
20
-1.275000
0
SEQEND
8
0
0
POLYLINE
8
0
66
1
40
0.008000
41
0.008000
0
VERTEX
8
0
10
-1.175000
20
-0.875000
0
VERTEX
8
0
10
-1.175000
20
-1.275000
0
SEQEND
8
0
0
POLYLINE
8
0
66
1
40
0.008000
41
0.008000
0
VERTEX
8
0
10
-1.575000
20
-1.275000
0
VERTEX
8
0
10
-1.175000
20
-1.275000
0
SEQEND
8
0
0
POLYLINE
8
0
66
1
40
0.008000
41
0.008000
0
VERTEX
8
0
10
-1.575000
20
-0.875000
0
VERTEX
8
0
10
-1.175000
20
-0.875000
0
SEQEND
8
0
0
TEXT
8
0
10
-1.425000
20
-0.865000
40
0.048000
41
1.041667
1
J1
0
CIRCLE
8
0
10
-1.373425
20
-0.600000
40
0.246063
0
CIRCLE
8
0
10
-1.556102
20
-0.417323
40
0.003937
0
TEXT
8
0
10
-1.423425
20
-0.345575
40
0.048000
41
1.041667
1
C5
0
POLYLINE
8
0
66
1
40
0.008000
41
0.008000
0
VERTEX
8
0
10
-0.925000
20
-0.450000
0
VERTEX
8
0
10
-0.625000
20
-0.450000
0
VERTEX
8
0
10
-0.625000
20
-0.350000
0
VERTEX
8
0
10
-0.925000
20
-0.350000
0
VERTEX
8
0
10
-0.925000
20
-0.450000
0
SEQEND
8
0
0
POLYLINE
8
0
66
1
40
0.008000
41
0.008000
0
VERTEX
8
0
10
-0.925000
20
-0.350000
0
VERTEX
8
0
10
-0.925000
20
-0.300000
0
VERTEX
8
0
10
-0.625000
20
-0.300000
0
VERTEX
8
0
10
-0.625000
20
-0.350000
0
SEQEND
8
0
0
POLYLINE
8
0
66
1
40
0.008000
41
0.008000
0
VERTEX
8
0
10
-0.925000
20
-0.350000
0
VERTEX
8
0
10
-0.875000
20
-0.300000
0
SEQEND
8
0
0
POLYLINE
8
0
66
1
40
0.008000
41
0.008000
0
VERTEX
8
0
10
-0.875000
20
-0.350000
0
VERTEX
8
0
10
-0.825000
20
-0.300000
0
SEQEND
8
0
0
POLYLINE
8
0
66
1
40
0.008000
41
0.008000
0
VERTEX
8
0
10
-0.825000
20
-0.350000
0
VERTEX
8
0
10
-0.775000
20
-0.300000
0
SEQEND
8
0
0
POLYLINE
8
0
66
1
40
0.008000
41
0.008000
0
VERTEX
8
0
10
-0.775000
20
-0.350000
0
VERTEX
8
0
10
-0.725000
20
-0.300000
0
SEQEND
8
0
0
POLYLINE
8
0
66
1
40
0.008000
41
0.008000
0
VERTEX
8
0
10
-0.725000
20
-0.350000
0
VERTEX
8
0
10
-0.675000
20
-0.300000
0
SEQEND
8
0
0
POLYLINE
8
0
66
1
40
0.008000
41
0.008000
0
VERTEX
8
0
10
-0.675000
20
-0.350000
0
VERTEX
8
0
10
-0.625000
20
-0.300000
0
SEQEND
8
0
0
TEXT
8
0
10
-0.825000
20
-0.290000
40
0.048000
41
1.041667
1
U2
0
POLYLINE
8
0
66
1
40
0.008000
41
0.008000
0
VERTEX
8
0
10
-1.050591
20
-0.263780
0
VERTEX
8
0
10
-0.499409
20
-0.263780
0
VERTEX
8
0
10
-0.499409
20
-0.736220
0
VERTEX
8
0
10
-0.617520
20
-0.736220
0
VERTEX
8
0
10
-0.617520
20
-0.342520
0
VERTEX
8
0
10
-0.932480
20
-0.342520
0
VERTEX
8
0
10
-0.932480
20
-0.736220
0
VERTEX
8
0
10
-1.050591
20
-0.736220
0
VERTEX
8
0
10
-1.050591
20
-0.263780
0
SEQEND
8
0
0
POLYLINE
8
0
66
1
40
0.008000
41
0.008000
0
VERTEX
8
0
10
-0.932480
20
-0.657480
0
VERTEX
8
0
10
-0.853740
20
-0.460630
0
VERTEX
8
0
10
-0.696260
20
-0.460630
0
VERTEX
8
0
10
-0.617520
20
-0.657480
0
SEQEND
8
0
0
POLYLINE
8
0
66
1
40
0.008000
41
0.008000
0
VERTEX
8
0
10
-0.932480
20
-0.342520
0
VERTEX
8
0
10
-0.932480
20
-0.263780
0
SEQEND
8
0
0
POLYLINE
8
0
66
1
40
0.008000
41
0.008000
0
VERTEX
8
0
10
-0.617520
20
-0.342520
0
VERTEX
8
0
10
-0.617520
20
-0.263780
0
SEQEND
8
0
0
POLYLINE
8
0
66
1
40
0.008000
41
0.008000
0
VERTEX
8
0
10
-1.050591
20
-0.303150
0
VERTEX
8
0
10
-1.011220
20
-0.263780
0
SEQEND
8
0
0
POLYLINE
8
0
66
1
40
0.008000
41
0.008000
0
VERTEX
8
0
10
-1.050591
20
-0.342520
0
VERTEX
8
0
10
-0.971850
20
-0.263780
0
SEQEND
8
0
0
POLYLINE
8
0
66
1
40
0.008000
41
0.008000
0
VERTEX
8
0
10
-1.050591
20
-0.381890
0
VERTEX
8
0
10
-0.932480
20
-0.263780
0
SEQEND
8
0
0
POLYLINE
8
0
66
1
40
0.008000
41
0.008000
0
VERTEX
8
0
10
-0.932480
20
-0.303150
0
VERTEX
8
0
10
-1.050591
20
-0.421260
0
SEQEND
8
0
0
POLYLINE
8
0
66
1
40
0.008000
41
0.008000
0
VERTEX
8
0
10
-1.050591
20
-0.460630
0
VERTEX
8
0
10
-0.932480
20
-0.342520
0
SEQEND
8
0
0
POLYLINE
8
0
66
1
40
0.008000
41
0.008000
0
VERTEX
8
0
10
-0.932480
20
-0.381890
0
VERTEX
8
0
10
-1.050591
20
-0.500000
0
SEQEND
8
0
0
POLYLINE
8
0
66
1
40
0.008000
41
0.008000
0
VERTEX
8
0
10
-1.050591
20
-0.539370
0
VERTEX
8
0
10
-0.932480
20
-0.421260
0
SEQEND
8
0
0
POLYLINE
8
0
66
1
40
0.008000
41
0.008000
0
VERTEX
8
0
10
-0.932480
20
-0.460630
0
VERTEX
8
0
10
-1.050591
20
-0.578740
0
SEQEND
8
0
0
POLYLINE
8
0
66
1
40
0.008000
41
0.008000
0
VERTEX
8
0
10
-1.050591
20
-0.618110
0
VERTEX
8
0
10
-0.932480
20
-0.500000
0
SEQEND
8
0
0
POLYLINE
8
0
66
1
40
0.008000
41
0.008000
0
VERTEX
8
0
10
-0.932480
20
-0.539370
0
VERTEX
8
0
10
-1.050591
20
-0.657480
0
SEQEND
8
0
0
POLYLINE
8
0
66
1
40
0.008000
41
0.008000
0
VERTEX
8
0
10
-1.050591
20
-0.696850
0
VERTEX
8
0
10
-0.932480
20
-0.578740
0
SEQEND
8
0
0
POLYLINE
8
0
66
1
40
0.008000
41
0.008000
0
VERTEX
8
0
10
-0.932480
20
-0.618110
0
VERTEX
8
0
10
-1.050591
20
-0.736220
0
SEQEND
8
0
0
POLYLINE
8
0
66
1
40
0.008000
41
0.008000
0
VERTEX
8
0
10
-1.011220
20
-0.736220
0
VERTEX
8
0
10
-0.932480
20
-0.657480
0
SEQEND
8
0
0
POLYLINE
8
0
66
1
40
0.008000
41
0.008000
0
VERTEX
8
0
10
-0.971850
20
-0.736220
0
VERTEX
8
0
10
-0.932480
20
-0.696850
0
SEQEND
8
0
0
POLYLINE
8
0
66
1
40
0.008000
41
0.008000
0
VERTEX
8
0
10
-0.617520
20
-0.303150
0
VERTEX
8
0
10
-0.578150
20
-0.263780
0
SEQEND
8
0
0
POLYLINE
8
0
66
1
40
0.008000
41
0.008000
0
VERTEX
8
0
10
-0.617520
20
-0.342520
0
VERTEX
8
0
10
-0.538780
20
-0.263780
0
SEQEND
8
0
0
POLYLINE
8
0
66
1
40
0.008000
41
0.008000
0
VERTEX
8
0
10
-0.617520
20
-0.381890
0
VERTEX
8
0
10
-0.499409
20
-0.263780
0
SEQEND
8
0
0
POLYLINE
8
0
66
1
40
0.008000
41
0.008000
0
VERTEX
8
0
10
-0.617520
20
-0.421260
0
VERTEX
8
0
10
-0.499409
20
-0.303150
0
SEQEND
8
0
0
POLYLINE
8
0
66
1
40
0.008000
41
0.008000
0
VERTEX
8
0
10
-0.617520
20
-0.460630
0
VERTEX
8
0
10
-0.499409
20
-0.342520
0
SEQEND
8
0
0
POLYLINE
8
0
66
1
40
0.008000
41
0.008000
0
VERTEX
8
0
10
-0.617520
20
-0.500000
0
VERTEX
8
0
10
-0.499409
20
-0.381890
0
SEQEND
8
0
0
POLYLINE
8
0
66
1
40
0.008000
41
0.008000
0
VERTEX
8
0
10
-0.617520
20
-0.539370
0
VERTEX
8
0
10
-0.499409
20
-0.421260
0
SEQEND
8
0
0
POLYLINE
8
0
66
1
40
0.008000
41
0.008000
0
VERTEX
8
0
10
-0.617520
20
-0.578740
0
VERTEX
8
0
10
-0.499409
20
-0.460630
0
SEQEND
8
0
0
POLYLINE
8
0
66
1
40
0.008000
41
0.008000
0
VERTEX
8
0
10
-0.617520
20
-0.618110
0
VERTEX
8
0
10
-0.499409
20
-0.500000
0
SEQEND
8
0
0
POLYLINE
8
0
66
1
40
0.008000
41
0.008000
0
VERTEX
8
0
10
-0.617520
20
-0.657480
0
VERTEX
8
0
10
-0.499409
20
-0.539370
0
SEQEND
8
0
0
POLYLINE
8
0
66
1
40
0.008000
41
0.008000
0
VERTEX
8
0
10
-0.617520
20
-0.696850
0
VERTEX
8
0
10
-0.499409
20
-0.578740
0
SEQEND
8
0
0
POLYLINE
8
0
66
1
40
0.008000
41
0.008000
0
VERTEX
8
0
10
-0.617520
20
-0.736220
0
VERTEX
8
0
10
-0.499409
20
-0.618110
0
SEQEND
8
0
0
POLYLINE
8
0
66
1
40
0.008000
41
0.008000
0
VERTEX
8
0
10
-0.578150
20
-0.736220
0
VERTEX
8
0
10
-0.499409
20
-0.657480
0
SEQEND
8
0
0
POLYLINE
8
0
66
1
40
0.008000
41
0.008000
0
VERTEX
8
0
10
-0.538780
20
-0.736220
0
VERTEX
8
0
10
-0.499409
20
-0.696850
0
SEQEND
8
0
0
CIRCLE
8
0
10
-0.750000
20
-1.050000
40
0.246063
0
CIRCLE
8
0
10
-0.567323
20
-1.232677
40
0.003937
0
TEXT
8
0
10
-0.800000
20
-1.352425
40
0.048000
41
1.041667
1
C6
0
POLYLINE
8
0
66
1
40
0.008000
41
0.008000
0
VERTEX
8
0
10
-0.400000
20
-0.913780
0
VERTEX
8
0
10
-0.391950
20
-0.915461
0
VERTEX
8
0
10
-0.384506
20
-0.920777
0
VERTEX
8
0
10
-0.377811
20
-0.930129
0
VERTEX
8
0
10
-0.372010
20
-0.943922
0
VERTEX
8
0
10
-0.367248
20
-0.962559
0
VERTEX
8
0
10
-0.363667
20
-0.986445
0
VERTEX
8
0
10
-0.361413
20
-1.015982
0
VERTEX
8
0
10
-0.360630
20
-1.051575
0
SEQEND
8
0
0
POLYLINE
8
0
66
1
40
0.008000
41
0.008000
0
VERTEX
8
0
10
-0.400000
20
-0.913780
0
VERTEX
8
0
10
-0.408050
20
-0.915461
0
VERTEX
8
0
10
-0.415494
20
-0.920777
0
VERTEX
8
0
10
-0.422189
20
-0.930129
0
VERTEX
8
0
10
-0.427990
20
-0.943922
0
VERTEX
8
0
10
-0.432752
20
-0.962559
0
VERTEX
8
0
10
-0.436333
20
-0.986445
0
VERTEX
8
0
10
-0.438587
20
-1.015982
0
VERTEX
8
0
10
-0.439370
20
-1.051575
0
SEQEND
8
0
0
POLYLINE
8
0
66
1
40
0.008000
41
0.008000
0
VERTEX
8
0
10
-0.400000
20
-1.189370
0
VERTEX
8
0
10
-0.391950
20
-1.187688
0
VERTEX
8
0
10
-0.384506
20
-1.182373
0
VERTEX
8
0
10
-0.377811
20
-1.173020
0
VERTEX
8
0
10
-0.372010
20
-1.159228
0
VERTEX
8
0
10
-0.367248
20
-1.140590
0
VERTEX
8
0
10
-0.363667
20
-1.116705
0
VERTEX
8
0
10
-0.361413
20
-1.087167
0
VERTEX
8
0
10
-0.360630
20
-1.051575
0
SEQEND
8
0
0
POLYLINE
8
0
66
1
40
0.008000
41
0.008000
0
VERTEX
8
0
10
-0.400000
20
-1.189370
0
VERTEX
8
0
10
-0.408050
20
-1.187688
0
VERTEX
8
0
10
-0.415494
20
-1.182373
0
VERTEX
8
0
10
-0.422189
20
-1.173020
0
VERTEX
8
0
10
-0.427990
20
-1.159228
0
VERTEX
8
0
10
-0.432752
20
-1.140590
0
VERTEX
8
0
10
-0.436333
20
-1.116705
0
VERTEX
8
0
10
-0.438587
20
-1.087167
0
VERTEX
8
0
10
-0.439370
20
-1.051575
0
SEQEND
8
0
0
TEXT
8
0
10
-0.302630
20
-1.101575
40
0.048000
41
1.041667
50
90.000000
1
C7
0
POLYLINE
8
0
66
1
40
0.008000
41
0.008000
0
VERTEX
8
0
10
-0.775000
20
-0.800000
0
VERTEX
8
0
10
-0.675000
20
-0.800000
0
VERTEX
8
0
10
-0.675000
20
-0.750000
0
VERTEX
8
0
10
-0.775000
20
-0.750000
0
VERTEX
8
0
10
-0.775000
20
-0.800000
0
SEQEND
8
0
0
POLYLINE
8
0
66
1
40
0.008000
41
0.008000
0
VERTEX
8
0
10
-0.825000
20
-0.775000
0
VERTEX
8
0
10
-0.775000
20
-0.775000
0
VERTEX
8
0
10
-0.775000
20
-0.775000
0
VERTEX
8
0
10
-0.825000
20
-0.775000
0
VERTEX
8
0
10
-0.825000
20
-0.775000
0
SEQEND
8
0
0
POLYLINE
8
0
66
1
40
0.008000
41
0.008000
0
VERTEX
8
0
10
-0.675000
20
-0.775000
0
VERTEX
8
0
10
-0.625000
20
-0.775000
0
VERTEX
8
0
10
-0.625000
20
-0.775000
0
VERTEX
8
0
10
-0.675000
20
-0.775000
0
VERTEX
8
0
10
-0.675000
20
-0.775000
0
SEQEND
8
0
0
TEXT
8
0
10
-0.775000
20
-0.740000
40
0.048000
41
1.041667
1
R4
0
POLYLINE
8
0
66
1
40
0.008000
41
0.008000
0
VERTEX
8
0
10
-0.150000
20
-1.000000
0
VERTEX
8
0
10
-0.100000
20
-1.000000
0
VERTEX
8
0
10
-0.100000
20
-0.900000
0
VERTEX
8
0
10
-0.150000
20
-0.900000
0
VERTEX
8
0
10
-0.150000
20
-1.000000
0
SEQEND
8
0
0
POLYLINE
8
0
66
1
40
0.008000
41
0.008000
0
VERTEX
8
0
10
-0.125000
20
-0.900000
0
VERTEX
8
0
10
-0.125000
20
-0.900000
0
VERTEX
8
0
10
-0.125000
20
-0.850000
0
VERTEX
8
0
10
-0.125000
20
-0.850000
0
VERTEX
8
0
10
-0.125000
20
-0.900000
0
SEQEND
8
0
0
POLYLINE
8
0
66
1
40
0.008000
41
0.008000
0
VERTEX
8
0
10
-0.125000
20
-1.050000
0
VERTEX
8
0
10
-0.125000
20
-1.050000
0
VERTEX
8
0
10
-0.125000
20
-1.000000
0
VERTEX
8
0
10
-0.125000
20
-1.000000
0
VERTEX
8
0
10
-0.125000
20
-1.050000
0
SEQEND
8
0
0
TEXT
8
0
10
-0.042000
20
-1.000000
40
0.048000
41
1.041667
50
90.000000
1
R5
0
POLYLINE
8
0
66
1
40
0.008000
41
0.008000
0
VERTEX
8
0
10
-0.302000
20
-1.052000
0
VERTEX
8
0
10
-0.197000
20
-1.052000
0
VERTEX
8
0
10
-0.197000
20
-0.848000
0
VERTEX
8
0
10
-0.302000
20
-0.848000
0
VERTEX
8
0
10
-0.302000
20
-1.052000
0
SEQEND
8
0
0
POLYLINE
8
0
66
1
40
0.008000
41
0.008000
0
VERTEX
8
0
10
-0.198000
20
-0.880000
0
VERTEX
8
0
10
-0.301000
20
-0.880000
0
SEQEND
8
0
0
POLYLINE
8
0
66
1
40
0.008000
41
0.008000
0
VERTEX
8
0
10
-0.250000
20
-0.820000
0
VERTEX
8
0
10
-0.250000
20
-0.848000
0
SEQEND
8
0
0
POLYLINE
8
0
66
1
40
0.008000
41
0.008000
0
VERTEX
8
0
10
-0.250000
20
-1.052000
0
VERTEX
8
0
10
-0.250000
20
-1.080000
0
SEQEND
8
0
0
TEXT
8
0
10
-0.139000
20
-1.000000
40
0.048000
41
1.041667
50
90.000000
1
D3
0
POLYLINE
8
0
66
1
40
0.008000
41
0.008000
0
VERTEX
8
0
10
0.800000
20
-0.875000
0
VERTEX
8
0
10
0.800000
20
-1.275000
0
SEQEND
8
0
0
POLYLINE
8
0
66
1
40
0.008000
41
0.008000
0
VERTEX
8
0
10
1.200000
20
-0.875000
0
VERTEX
8
0
10
1.200000
20
-1.275000
0
SEQEND
8
0
0
POLYLINE
8
0
66
1
40
0.008000
41
0.008000
0
VERTEX
8
0
10
0.800000
20
-1.275000
0
VERTEX
8
0
10
1.200000
20
-1.275000
0
SEQEND
8
0
0
POLYLINE
8
0
66
1
40
0.008000
41
0.008000
0
VERTEX
8
0
10
0.800000
20
-0.875000
0
VERTEX
8
0
10
1.200000
20
-0.875000
0
SEQEND
8
0
0
TEXT
8
0
10
0.950000
20
-0.865000
40
0.048000
41
1.041667
1
J4
0
POLYLINE
8
0
66
1
40
0.008000
41
0.008000
0
VERTEX
8
0
10
0.400000
20
-0.875000
0
VERTEX
8
0
10
0.400000
20
-1.275000
0
SEQEND
8
0
0
POLYLINE
8
0
66
1
40
0.008000
41
0.008000
0
VERTEX
8
0
10
0.800000
20
-0.875000
0
VERTEX
8
0
10
0.800000
20
-1.275000
0
SEQEND
8
0
0
POLYLINE
8
0
66
1
40
0.008000
41
0.008000
0
VERTEX
8
0
10
0.400000
20
-1.275000
0
VERTEX
8
0
10
0.800000
20
-1.275000
0
SEQEND
8
0
0
POLYLINE
8
0
66
1
40
0.008000
41
0.008000
0
VERTEX
8
0
10
0.400000
20
-0.875000
0
VERTEX
8
0
10
0.800000
20
-0.875000
0
SEQEND
8
0
0
TEXT
8
0
10
0.550000
20
-0.865000
40
0.048000
41
1.041667
1
J6
0
POLYLINE
8
0
66
1
40
0.008000
41
0.008000
0
VERTEX
8
0
10
0.000000
20
-0.875000
0
VERTEX
8
0
10
0.000000
20
-1.275000
0
SEQEND
8
0
0
POLYLINE
8
0
66
1
40
0.008000
41
0.008000
0
VERTEX
8
0
10
0.400000
20
-0.875000
0
VERTEX
8
0
10
0.400000
20
-1.275000
0
SEQEND
8
0
0
POLYLINE
8
0
66
1
40
0.008000
41
0.008000
0
VERTEX
8
0
10
0.000000
20
-1.275000
0
VERTEX
8
0
10
0.400000
20
-1.275000
0
SEQEND
8
0
0
POLYLINE
8
0
66
1
40
0.008000
41
0.008000
0
VERTEX
8
0
10
0.000000
20
-0.875000
0
VERTEX
8
0
10
0.400000
20
-0.875000
0
SEQEND
8
0
0
TEXT
8
0
10
0.150000
20
-0.865000
40
0.048000
41
1.041667
1
J7
0
POLYLINE
8
0
66
1
40
0.008000
41
0.008000
0
VERTEX
8
0
10
0.925000
20
-0.800000
0
VERTEX
8
0
10
1.075000
20
-0.800000
0
SEQEND
8
0
0
POLYLINE
8
0
66
1
40
0.008000
41
0.008000
0
VERTEX
8
0
10
0.905000
20
-0.750000
0
VERTEX
8
0
10
0.905859
20
-0.759326
0
VERTEX
8
0
10
0.908125
20
-0.768359
0
VERTEX
8
0
10
0.915000
20
-0.784375
0
VERTEX
8
0
10
0.925000
20
-0.800000
0
SEQEND
8
0
0
POLYLINE
8
0
66
1
40
0.008000
41
0.008000
0
VERTEX
8
0
10
0.905000
20
-0.750000
0
VERTEX
8
0
10
0.905339
20
-0.729553
0
VERTEX
8
0
10
0.909824
20
-0.710644
0
VERTEX
8
0
10
0.918030
20
-0.693640
0
VERTEX
8
0
10
0.929531
20
-0.678906
0
VERTEX
8
0
10
0.943904
20
-0.666809
0
VERTEX
8
0
10
0.960723
20
-0.657715
0
VERTEX
8
0
10
0.979563
20
-0.651990
0
VERTEX
8
0
10
1.000000
20
-0.650000
0
SEQEND
8
0
0
POLYLINE
8
0
66
1
40
0.008000
41
0.008000
0
VERTEX
8
0
10
1.095000
20
-0.750000
0
VERTEX
8
0
10
1.094141
20
-0.759326
0
VERTEX
8
0
10
1.091875
20
-0.768359
0
VERTEX
8
0
10
1.085000
20
-0.784375
0
VERTEX
8
0
10
1.075000
20
-0.800000
0
SEQEND
8
0
0
POLYLINE
8
0
66
1
40
0.008000
41
0.008000
0
VERTEX
8
0
10
1.095000
20
-0.750000
0
VERTEX
8
0
10
1.094661
20
-0.729553
0
VERTEX
8
0
10
1.090176
20
-0.710644
0
VERTEX
8
0
10
1.081970
20
-0.693640
0
VERTEX
8
0
10
1.070469
20
-0.678906
0
VERTEX
8
0
10
1.056096
20
-0.666809
0
VERTEX
8
0
10
1.039277
20
-0.657715
0
VERTEX
8
0
10
1.020437
20
-0.651990
0
VERTEX
8
0
10
1.000000
20
-0.650000
0
SEQEND
8
0
0
TEXT
8
0
10
0.950000
20
-0.640000
40
0.048000
41
1.041667
1
Q2
0
POLYLINE
8
0
66
1
40
0.008000
41
0.008000
0
VERTEX
8
0
10
0.525000
20
-0.575000
0
VERTEX
8
0
10
0.525000
20
-0.725000
0
SEQEND
8
0
0
POLYLINE
8
0
66
1
40
0.008000
41
0.008000
0
VERTEX
8
0
10
0.575000
20
-0.555000
0
VERTEX
8
0
10
0.565674
20
-0.555859
0
VERTEX
8
0
10
0.556641
20
-0.558125
0
VERTEX
8
0
10
0.540625
20
-0.565000
0
VERTEX
8
0
10
0.525000
20
-0.575000
0
SEQEND
8
0
0
POLYLINE
8
0
66
1
40
0.008000
41
0.008000
0
VERTEX
8
0
10
0.575000
20
-0.555000
0
VERTEX
8
0
10
0.595447
20
-0.555339
0
VERTEX
8
0
10
0.614356
20
-0.559824
0
VERTEX
8
0
10
0.631360
20
-0.568030
0
VERTEX
8
0
10
0.646094
20
-0.579531
0
VERTEX
8
0
10
0.658191
20
-0.593904
0
VERTEX
8
0
10
0.667285
20
-0.610723
0
VERTEX
8
0
10
0.673010
20
-0.629563
0
VERTEX
8
0
10
0.675000
20
-0.650000
0
SEQEND
8
0
0
POLYLINE
8
0
66
1
40
0.008000
41
0.008000
0
VERTEX
8
0
10
0.575000
20
-0.745000
0
VERTEX
8
0
10
0.565674
20
-0.744141
0
VERTEX
8
0
10
0.556641
20
-0.741875
0
VERTEX
8
0
10
0.540625
20
-0.735000
0
VERTEX
8
0
10
0.525000
20
-0.725000
0
SEQEND
8
0
0
POLYLINE
8
0
66
1
40
0.008000
41
0.008000
0
VERTEX
8
0
10
0.575000
20
-0.745000
0
VERTEX
8
0
10
0.595447
20
-0.744661
0
VERTEX
8
0
10
0.614356
20
-0.740176
0
VERTEX
8
0
10
0.631360
20
-0.731970
0
VERTEX
8
0
10
0.646094
20
-0.720469
0
VERTEX
8
0
10
0.658191
20
-0.706096
0
VERTEX
8
0
10
0.667285
20
-0.689277
0
VERTEX
8
0
10
0.673010
20
-0.670437
0
VERTEX
8
0
10
0.675000
20
-0.650000
0
SEQEND
8
0
0
TEXT
8
0
10
0.733000
20
-0.700000
40
0.048000
41
1.041667
50
90.000000
1
Q3
0
POLYLINE
8
0
66
1
40
0.008000
41
0.008000
0
VERTEX
8
0
10
0.125000
20
-0.575000
0
VERTEX
8
0
10
0.125000
20
-0.725000
0
SEQEND
8
0
0
POLYLINE
8
0
66
1
40
0.008000
41
0.008000
0
VERTEX
8
0
10
0.175000
20
-0.555000
0
VERTEX
8
0
10
0.165674
20
-0.555859
0
VERTEX
8
0
10
0.156641
20
-0.558125
0
VERTEX
8
0
10
0.140625
20
-0.565000
0
VERTEX
8
0
10
0.125000
20
-0.575000
0
SEQEND
8
0
0
POLYLINE
8
0
66
1
40
0.008000
41
0.008000
0
VERTEX
8
0
10
0.175000
20
-0.555000
0
VERTEX
8
0
10
0.195447
20
-0.555339
0
VERTEX
8
0
10
0.214356
20
-0.559824
0
VERTEX
8
0
10
0.231360
20
-0.568030
0
VERTEX
8
0
10
0.246094
20
-0.579531
0
VERTEX
8
0
10
0.258191
20
-0.593904
0
VERTEX
8
0
10
0.267285
20
-0.610723
0
VERTEX
8
0
10
0.273010
20
-0.629563
0
VERTEX
8
0
10
0.275000
20
-0.650000
0
SEQEND
8
0
0
POLYLINE
8
0
66
1
40
0.008000
41
0.008000
0
VERTEX
8
0
10
0.175000
20
-0.745000
0
VERTEX
8
0
10
0.165674
20
-0.744141
0
VERTEX
8
0
10
0.156641
20
-0.741875
0
VERTEX
8
0
10
0.140625
20
-0.735000
0
VERTEX
8
0
10
0.125000
20
-0.725000
0
SEQEND
8
0
0
POLYLINE
8
0
66
1
40
0.008000
41
0.008000
0
VERTEX
8
0
10
0.175000
20
-0.745000
0
VERTEX
8
0
10
0.195447
20
-0.744661
0
VERTEX
8
0
10
0.214356
20
-0.740176
0
VERTEX
8
0
10
0.231360
20
-0.731970
0
VERTEX
8
0
10
0.246094
20
-0.720469
0
VERTEX
8
0
10
0.258191
20
-0.706096
0
VERTEX
8
0
10
0.267285
20
-0.689277
0
VERTEX
8
0
10
0.273010
20
-0.670437
0
VERTEX
8
0
10
0.275000
20
-0.650000
0
SEQEND
8
0
0
TEXT
8
0
10
0.333000
20
-0.700000
40
0.048000
41
1.041667
50
90.000000
1
Q4
0
POLYLINE
8
0
66
1
40
0.008000
41
0.008000
0
VERTEX
8
0
10
1.300000
20
0.050000
0
VERTEX
8
0
10
1.350000
20
0.050000
0
VERTEX
8
0
10
1.350000
20
0.150000
0
VERTEX
8
0
10
1.300000
20
0.150000
0
VERTEX
8
0
10
1.300000
20
0.050000
0
SEQEND
8
0
0
POLYLINE
8
0
66
1
40
0.008000
41
0.008000
0
VERTEX
8
0
10
1.325000
20
0.150000
0
VERTEX
8
0
10
1.325000
20
0.150000
0
VERTEX
8
0
10
1.325000
20
0.200000
0
VERTEX
8
0
10
1.325000
20
0.200000
0
VERTEX
8
0
10
1.325000
20
0.150000
0
SEQEND
8
0
0
POLYLINE
8
0
66
1
40
0.008000
41
0.008000
0
VERTEX
8
0
10
1.325000
20
0.000000
0
VERTEX
8
0
10
1.325000
20
0.000000
0
VERTEX
8
0
10
1.325000
20
0.050000
0
VERTEX
8
0
10
1.325000
20
0.050000
0
VERTEX
8
0
10
1.325000
20
0.000000
0
SEQEND
8
0
0
TEXT
8
0
10
1.408000
20
0.050000
40
0.048000
41
1.041667
50
90.000000
1
R6
0
POLYLINE
8
0
66
1
40
0.008000
41
0.008000
0
VERTEX
8
0
10
0.550000
20
-0.825000
0
VERTEX
8
0
10
0.650000
20
-0.825000
0
VERTEX
8
0
10
0.650000
20
-0.775000
0
VERTEX
8
0
10
0.550000
20
-0.775000
0
VERTEX
8
0
10
0.550000
20
-0.825000
0
SEQEND
8
0
0
POLYLINE
8
0
66
1
40
0.008000
41
0.008000
0
VERTEX
8
0
10
0.500000
20
-0.800000
0
VERTEX
8
0
10
0.550000
20
-0.800000
0
VERTEX
8
0
10
0.550000
20
-0.800000
0
VERTEX
8
0
10
0.500000
20
-0.800000
0
VERTEX
8
0
10
0.500000
20
-0.800000
0
SEQEND
8
0
0
POLYLINE
8
0
66
1
40
0.008000
41
0.008000
0
VERTEX
8
0
10
0.650000
20
-0.800000
0
VERTEX
8
0
10
0.700000
20
-0.800000
0
VERTEX
8
0
10
0.700000
20
-0.800000
0
VERTEX
8
0
10
0.650000
20
-0.800000
0
VERTEX
8
0
10
0.650000
20
-0.800000
0
SEQEND
8
0
0
TEXT
8
0
10
0.525000
20
-0.765000
40
0.048000
41
1.041667
1
R11
0
POLYLINE
8
0
66
1
40
0.008000
41
0.008000
0
VERTEX
8
0
10
0.150000
20
-0.825000
0
VERTEX
8
0
10
0.250000
20
-0.825000
0
VERTEX
8
0
10
0.250000
20
-0.775000
0
VERTEX
8
0
10
0.150000
20
-0.775000
0
VERTEX
8
0
10
0.150000
20
-0.825000
0
SEQEND
8
0
0
POLYLINE
8
0
66
1
40
0.008000
41
0.008000
0
VERTEX
8
0
10
0.100000
20
-0.800000
0
VERTEX
8
0
10
0.150000
20
-0.800000
0
VERTEX
8
0
10
0.150000
20
-0.800000
0
VERTEX
8
0
10
0.100000
20
-0.800000
0
VERTEX
8
0
10
0.100000
20
-0.800000
0
SEQEND
8
0
0
POLYLINE
8
0
66
1
40
0.008000
41
0.008000
0
VERTEX
8
0
10
0.250000
20
-0.800000
0
VERTEX
8
0
10
0.300000
20
-0.800000
0
VERTEX
8
0
10
0.300000
20
-0.800000
0
VERTEX
8
0
10
0.250000
20
-0.800000
0
VERTEX
8
0
10
0.250000
20
-0.800000
0
SEQEND
8
0
0
TEXT
8
0
10
0.125000
20
-0.765000
40
0.048000
41
1.041667
1
R13
0
POLYLINE
8
0
66
1
40
0.008000
41
0.008000
0
VERTEX
8
0
10
0.100000
20
-0.525000
0
VERTEX
8
0
10
0.200000
20
-0.525000
0
VERTEX
8
0
10
0.200000
20
-0.475000
0
VERTEX
8
0
10
0.100000
20
-0.475000
0
VERTEX
8
0
10
0.100000
20
-0.525000
0
SEQEND
8
0
0
POLYLINE
8
0
66
1
40
0.008000
41
0.008000
0
VERTEX
8
0
10
0.050000
20
-0.500000
0
VERTEX
8
0
10
0.100000
20
-0.500000
0
VERTEX
8
0
10
0.100000
20
-0.500000
0
VERTEX
8
0
10
0.050000
20
-0.500000
0
VERTEX
8
0
10
0.050000
20
-0.500000
0
SEQEND
8
0
0
POLYLINE
8
0
66
1
40
0.008000
41
0.008000
0
VERTEX
8
0
10
0.200000
20
-0.500000
0
VERTEX
8
0
10
0.250000
20
-0.500000
0
VERTEX
8
0
10
0.250000
20
-0.500000
0
VERTEX
8
0
10
0.200000
20
-0.500000
0
VERTEX
8
0
10
0.200000
20
-0.500000
0
SEQEND
8
0
0
TEXT
8
0
10
0.075000
20
-0.465000
40
0.048000
41
1.041667
1
R14
0
POLYLINE
8
0
66
1
40
0.008000
41
0.008000
0
VERTEX
8
0
10
0.300000
20
-0.350000
0
VERTEX
8
0
10
0.400000
20
-0.350000
0
VERTEX
8
0
10
0.400000
20
-0.300000
0
VERTEX
8
0
10
0.300000
20
-0.300000
0
VERTEX
8
0
10
0.300000
20
-0.350000
0
SEQEND
8
0
0
POLYLINE
8
0
66
1
40
0.008000
41
0.008000
0
VERTEX
8
0
10
0.250000
20
-0.325000
0
VERTEX
8
0
10
0.300000
20
-0.325000
0
VERTEX
8
0
10
0.300000
20
-0.325000
0
VERTEX
8
0
10
0.250000
20
-0.325000
0
VERTEX
8
0
10
0.250000
20
-0.325000
0
SEQEND
8
0
0
POLYLINE
8
0
66
1
40
0.008000
41
0.008000
0
VERTEX
8
0
10
0.400000
20
-0.325000
0
VERTEX
8
0
10
0.450000
20
-0.325000
0
VERTEX
8
0
10
0.450000
20
-0.325000
0
VERTEX
8
0
10
0.400000
20
-0.325000
0
VERTEX
8
0
10
0.400000
20
-0.325000
0
SEQEND
8
0
0
TEXT
8
0
10
0.275000
20
-0.290000
40
0.048000
41
1.041667
1
R12
0
POLYLINE
8
0
66
1
40
0.008000
41
0.008000
0
VERTEX
8
0
10
-0.100000
20
-0.100000
0
VERTEX
8
0
10
0.400000
20
-0.100000
0
VERTEX
8
0
10
0.400000
20
0.150000
0
VERTEX
8
0
10
-0.100000
20
0.150000
0
VERTEX
8
0
10
-0.100000
20
-0.100000
0
SEQEND
8
0
0
POLYLINE
8
0
66
1
40
0.008000
41
0.008000
0
VERTEX
8
0
10
-0.100000
20
0.100000
0
VERTEX
8
0
10
0.400000
20
0.100000
0
SEQEND
8
0
0
TEXT
8
0
10
0.100000
20
0.160000
40
0.048000
41
1.041667
1
J8
0
POLYLINE
8
0
66
1
40
0.008000
41
0.008000
0
VERTEX
8
0
10
-0.100000
20
0.275000
0
VERTEX
8
0
10
0.000000
20
0.275000
0
VERTEX
8
0
10
0.000000
20
0.325000
0
VERTEX
8
0
10
-0.100000
20
0.325000
0
VERTEX
8
0
10
-0.100000
20
0.275000
0
SEQEND
8
0
0
POLYLINE
8
0
66
1
40
0.008000
41
0.008000
0
VERTEX
8
0
10
-0.150000
20
0.300000
0
VERTEX
8
0
10
-0.100000
20
0.300000
0
VERTEX
8
0
10
-0.100000
20
0.300000
0
VERTEX
8
0
10
-0.150000
20
0.300000
0
VERTEX
8
0
10
-0.150000
20
0.300000
0
SEQEND
8
0
0
POLYLINE
8
0
66
1
40
0.008000
41
0.008000
0
VERTEX
8
0
10
0.000000
20
0.300000
0
VERTEX
8
0
10
0.050000
20
0.300000
0
VERTEX
8
0
10
0.050000
20
0.300000
0
VERTEX
8
0
10
0.000000
20
0.300000
0
VERTEX
8
0
10
0.000000
20
0.300000
0
SEQEND
8
0
0
TEXT
8
0
10
-0.100000
20
0.335000
40
0.048000
41
1.041667
1
R7
0
POLYLINE
8
0
66
1
40
0.008000
41
0.008000
0
VERTEX
8
0
10
1.200000
20
-0.875000
0
VERTEX
8
0
10
1.200000
20
-1.275000
0
SEQEND
8
0
0
POLYLINE
8
0
66
1
40
0.008000
41
0.008000
0
VERTEX
8
0
10
1.600000
20
-0.875000
0
VERTEX
8
0
10
1.600000
20
-1.275000
0
SEQEND
8
0
0
POLYLINE
8
0
66
1
40
0.008000
41
0.008000
0
VERTEX
8
0
10
1.200000
20
-1.275000
0
VERTEX
8
0
10
1.600000
20
-1.275000
0
SEQEND
8
0
0
POLYLINE
8
0
66
1
40
0.008000
41
0.008000
0
VERTEX
8
0
10
1.200000
20
-0.875000
0
VERTEX
8
0
10
1.600000
20
-0.875000
0
SEQEND
8
0
0
TEXT
8
0
10
1.350000
20
-0.865000
40
0.048000
41
1.041667
1
J9
0
POLYLINE
8
0
66
1
40
0.008000
41
0.008000
0
VERTEX
8
0
10
1.325000
20
-0.800000
0
VERTEX
8
0
10
1.475000
20
-0.800000
0
SEQEND
8
0
0
POLYLINE
8
0
66
1
40
0.008000
41
0.008000
0
VERTEX
8
0
10
1.305000
20
-0.750000
0
VERTEX
8
0
10
1.305859
20
-0.759326
0
VERTEX
8
0
10
1.308125
20
-0.768359
0
VERTEX
8
0
10
1.315000
20
-0.784375
0
VERTEX
8
0
10
1.325000
20
-0.800000
0
SEQEND
8
0
0
POLYLINE
8
0
66
1
40
0.008000
41
0.008000
0
VERTEX
8
0
10
1.305000
20
-0.750000
0
VERTEX
8
0
10
1.305339
20
-0.729553
0
VERTEX
8
0
10
1.309824
20
-0.710644
0
VERTEX
8
0
10
1.318030
20
-0.693640
0
VERTEX
8
0
10
1.329531
20
-0.678906
0
VERTEX
8
0
10
1.343904
20
-0.666809
0
VERTEX
8
0
10
1.360723
20
-0.657715
0
VERTEX
8
0
10
1.379563
20
-0.651990
0
VERTEX
8
0
10
1.400000
20
-0.650000
0
SEQEND
8
0
0
POLYLINE
8
0
66
1
40
0.008000
41
0.008000
0
VERTEX
8
0
10
1.495000
20
-0.750000
0
VERTEX
8
0
10
1.494141
20
-0.759326
0
VERTEX
8
0
10
1.491875
20
-0.768359
0
VERTEX
8
0
10
1.485000
20
-0.784375
0
VERTEX
8
0
10
1.475000
20
-0.800000
0
SEQEND
8
0
0
POLYLINE
8
0
66
1
40
0.008000
41
0.008000
0
VERTEX
8
0
10
1.495000
20
-0.750000
0
VERTEX
8
0
10
1.494661
20
-0.729553
0
VERTEX
8
0
10
1.490176
20
-0.710644
0
VERTEX
8
0
10
1.481970
20
-0.693640
0
VERTEX
8
0
10
1.470469
20
-0.678906
0
VERTEX
8
0
10
1.456096
20
-0.666809
0
VERTEX
8
0
10
1.439277
20
-0.657715
0
VERTEX
8
0
10
1.420437
20
-0.651990
0
VERTEX
8
0
10
1.400000
20
-0.650000
0
SEQEND
8
0
0
TEXT
8
0
10
1.350000
20
-0.640000
40
0.048000
41
1.041667
1
Q5
0
POLYLINE
8
0
66
1
40
0.008000
41
0.008000
0
VERTEX
8
0
10
1.400000
20
0.050000
0
VERTEX
8
0
10
1.450000
20
0.050000
0
VERTEX
8
0
10
1.450000
20
0.150000
0
VERTEX
8
0
10
1.400000
20
0.150000
0
VERTEX
8
0
10
1.400000
20
0.050000
0
SEQEND
8
0
0
POLYLINE
8
0
66
1
40
0.008000
41
0.008000
0
VERTEX
8
0
10
1.425000
20
0.150000
0
VERTEX
8
0
10
1.425000
20
0.150000
0
VERTEX
8
0
10
1.425000
20
0.200000
0
VERTEX
8
0
10
1.425000
20
0.200000
0
VERTEX
8
0
10
1.425000
20
0.150000
0
SEQEND
8
0
0
POLYLINE
8
0
66
1
40
0.008000
41
0.008000
0
VERTEX
8
0
10
1.425000
20
0.000000
0
VERTEX
8
0
10
1.425000
20
0.000000
0
VERTEX
8
0
10
1.425000
20
0.050000
0
VERTEX
8
0
10
1.425000
20
0.050000
0
VERTEX
8
0
10
1.425000
20
0.000000
0
SEQEND
8
0
0
TEXT
8
0
10
1.508000
20
0.025000
40
0.048000
41
1.041667
50
90.000000
1
R15
0
POLYLINE
8
0
66
1
40
0.008000
41
0.008000
0
VERTEX
8
0
10
1.062992
20
0.748031
0
VERTEX
8
0
10
1.061310
20
0.739981
0
VERTEX
8
0
10
1.055995
20
0.732537
0
VERTEX
8
0
10
1.046643
20
0.725843
0
VERTEX
8
0
10
1.032850
20
0.720042
0
VERTEX
8
0
10
1.014212
20
0.715279
0
VERTEX
8
0
10
0.990327
20
0.711699
0
VERTEX
8
0
10
0.960789
20
0.709445
0
VERTEX
8
0
10
0.925197
20
0.708661
0
SEQEND
8
0
0
POLYLINE
8
0
66
1
40
0.008000
41
0.008000
0
VERTEX
8
0
10
1.062992
20
0.748031
0
VERTEX
8
0
10
1.061310
20
0.756081
0
VERTEX
8
0
10
1.055995
20
0.763526
0
VERTEX
8
0
10
1.046643
20
0.770220
0
VERTEX
8
0
10
1.032850
20
0.776021
0
VERTEX
8
0
10
1.014212
20
0.780784
0
VERTEX
8
0
10
0.990327
20
0.784364
0
VERTEX
8
0
10
0.960789
20
0.786618
0
VERTEX
8
0
10
0.925197
20
0.787402
0
SEQEND
8
0
0
POLYLINE
8
0
66
1
40
0.008000
41
0.008000
0
VERTEX
8
0
10
0.787402
20
0.748031
0
VERTEX
8
0
10
0.789083
20
0.739981
0
VERTEX
8
0
10
0.794399
20
0.732537
0
VERTEX
8
0
10
0.803751
20
0.725843
0
VERTEX
8
0
10
0.817544
20
0.720042
0
VERTEX
8
0
10
0.836181
20
0.715279
0
VERTEX
8
0
10
0.860067
20
0.711699
0
VERTEX
8
0
10
0.889604
20
0.709445
0
VERTEX
8
0
10
0.925197
20
0.708661
0
SEQEND
8
0
0
POLYLINE
8
0
66
1
40
0.008000
41
0.008000
0
VERTEX
8
0
10
0.787402
20
0.748031
0
VERTEX
8
0
10
0.789083
20
0.756081
0
VERTEX
8
0
10
0.794399
20
0.763526
0
VERTEX
8
0
10
0.803751
20
0.770220
0
VERTEX
8
0
10
0.817544
20
0.776021
0
VERTEX
8
0
10
0.836181
20
0.780784
0
VERTEX
8
0
10
0.860067
20
0.784364
0
VERTEX
8
0
10
0.889604
20
0.786618
0
VERTEX
8
0
10
0.925197
20
0.787402
0
SEQEND
8
0
0
TEXT
8
0
10
0.875197
20
0.650661
40
0.048000
41
1.041667
1
C8
0
POLYLINE
8
0
66
1
40
0.008000
41
0.008000
0
VERTEX
8
0
10
-0.575000
20
0.550000
0
VERTEX
8
0
10
-0.075000
20
0.550000
0
VERTEX
8
0
10
-0.075000
20
0.800000
0
VERTEX
8
0
10
-0.575000
20
0.800000
0
VERTEX
8
0
10
-0.575000
20
0.550000
0
SEQEND
8
0
0
POLYLINE
8
0
66
1
40
0.008000
41
0.008000
0
VERTEX
8
0
10
-0.575000
20
0.750000
0
VERTEX
8
0
10
-0.075000
20
0.750000
0
SEQEND
8
0
0
TEXT
8
0
10
-0.400000
20
0.810000
40
0.048000
41
1.041667
1
J10
0
POLYLINE
8
0
66
1
40
0.008000
41
0.008000
0
VERTEX
8
0
10
-0.500000
20
0.050000
0
VERTEX
8
0
10
-0.400000
20
0.050000
0
VERTEX
8
0
10
-0.400000
20
0.350000
0
VERTEX
8
0
10
-0.500000
20
0.350000
0
VERTEX
8
0
10
-0.500000
20
0.050000
0
SEQEND
8
0
0
TEXT
8
0
10
-0.510000
20
0.125000
40
0.048000
41
1.041667
50
90.000000
1
J11
0
ENDSEC
0
EOF

