<?xml version="1.0" encoding="UTF-8" standalone="no"?>
<!-- Created with Inkscape (http://www.inkscape.org/) -->

<svg
   xmlns:dc="http://purl.org/dc/elements/1.1/"
   xmlns:cc="http://creativecommons.org/ns#"
   xmlns:rdf="http://www.w3.org/1999/02/22-rdf-syntax-ns#"
   xmlns:svg="http://www.w3.org/2000/svg"
   xmlns="http://www.w3.org/2000/svg"
   xmlns:sodipodi="http://sodipodi.sourceforge.net/DTD/sodipodi-0.dtd"
   xmlns:inkscape="http://www.inkscape.org/namespaces/inkscape"
   version="1.1"
   id="svg2"
   xml:space="preserve"
   width="246.05333"
   height="94.746666"
   viewBox="0 0 246.05333 94.746666"
   sodipodi:docname="pcbrs232.svg"
   inkscape:version="0.92.3 (2405546, 2018-03-11)"><metadata
     id="metadata8"><rdf:RDF><cc:Work
         rdf:about=""><dc:format>image/svg+xml</dc:format><dc:type
           rdf:resource="http://purl.org/dc/dcmitype/StillImage" /><dc:title></dc:title></cc:Work></rdf:RDF></metadata><defs
     id="defs6" /><sodipodi:namedview
     pagecolor="#ffffff"
     bordercolor="#666666"
     borderopacity="1"
     objecttolerance="10"
     gridtolerance="10"
     guidetolerance="10"
     inkscape:pageopacity="0"
     inkscape:pageshadow="2"
     inkscape:window-width="1920"
     inkscape:window-height="1017"
     id="namedview4"
     showgrid="false"
     inkscape:zoom="2.2230953"
     inkscape:cx="123.02666"
     inkscape:cy="47.373333"
     inkscape:window-x="1272"
     inkscape:window-y="-8"
     inkscape:window-maximized="1"
     inkscape:current-layer="g10" /><g
     id="g10"
     inkscape:groupmode="layer"
     inkscape:label="PCB_PCB_2020-01-21 18_18_34_20200121191236"
     transform="matrix(1.3333333,0,0,-1.3333333,0,94.746667)"><path
       d="M 0,71.06 H 184.54 V 0 H 0 Z"
       style="fill:#ffffff;fill-opacity:1;fill-rule:nonzero;stroke:none"
       id="path12"
       inkscape:connector-curvature="0" /><path
       d="m 63.03,48.192 4.32,4.32 h 87.48 l 5.4,-5.4 h 7.2"
       style="fill:none;stroke:#000000;stroke-width:2.82999992;stroke-linecap:round;stroke-linejoin:round;stroke-miterlimit:72;stroke-dasharray:none;stroke-opacity:1"
       id="path14"
       inkscape:connector-curvature="0" /><path
       d="m 55.83,22.992 3.6,3.6 h 3.6"
       style="fill:none;stroke:#000000;stroke-width:2.82999992;stroke-linecap:round;stroke-linejoin:round;stroke-miterlimit:72;stroke-dasharray:none;stroke-opacity:1"
       id="path16"
       inkscape:connector-curvature="0" /><path
       d="m 55.83,22.992 v 21.6"
       style="fill:none;stroke:#000000;stroke-width:2.82999992;stroke-linecap:round;stroke-linejoin:round;stroke-miterlimit:72;stroke-dasharray:none;stroke-opacity:1"
       id="path18"
       inkscape:connector-curvature="0" /><path
       d="m 63.03,40.992 h 2.88 l 6.12,6.12 h 5.4"
       style="fill:none;stroke:#000000;stroke-width:2.82999992;stroke-linecap:round;stroke-linejoin:round;stroke-miterlimit:72;stroke-dasharray:none;stroke-opacity:1"
       id="path20"
       inkscape:connector-curvature="0" /><path
       d="m 63.03,33.792 h 2.88 l 6.12,6.12 h 5.4"
       style="fill:none;stroke:#000000;stroke-width:2.82999992;stroke-linecap:round;stroke-linejoin:round;stroke-miterlimit:72;stroke-dasharray:none;stroke-opacity:1"
       id="path22"
       inkscape:connector-curvature="0" /><path
       d="m 77.43,25.512 h -14.4 v 1.08"
       style="fill:none;stroke:#000000;stroke-width:2.82999992;stroke-linecap:round;stroke-linejoin:round;stroke-miterlimit:72;stroke-dasharray:none;stroke-opacity:1"
       id="path24"
       inkscape:connector-curvature="0" /><path
       d="m 149.43,47.112 -12.6,-12.6 v -14.4 l 7.2,-7.2 h 18 l 5.4,5.4"
       style="fill:none;stroke:#000000;stroke-width:2.82999992;stroke-linecap:round;stroke-linejoin:round;stroke-miterlimit:72;stroke-dasharray:none;stroke-opacity:1"
       id="path26"
       inkscape:connector-curvature="0" /><path
       d="m 149.43,32.712 h -3.6 l -3.6,-3.6 v -7.2 l 3.6,-3.6 h 10.8 l 7.2,7.2 h 3.6"
       style="fill:none;stroke:#000000;stroke-width:2.82999992;stroke-linecap:round;stroke-linejoin:round;stroke-miterlimit:72;stroke-dasharray:none;stroke-opacity:1"
       id="path28"
       inkscape:connector-curvature="0" /><path
       d="m 149.43,25.512 h 5.4 l 7.2,7.2 h 5.4"
       style="fill:none;stroke:#000000;stroke-width:2.82999992;stroke-linecap:round;stroke-linejoin:round;stroke-miterlimit:72;stroke-dasharray:none;stroke-opacity:1"
       id="path30"
       inkscape:connector-curvature="0" /><path
       d="m 149.43,39.912 h 18"
       style="fill:none;stroke:#000000;stroke-width:2.82999992;stroke-linecap:round;stroke-linejoin:round;stroke-miterlimit:72;stroke-dasharray:none;stroke-opacity:1"
       id="path32"
       inkscape:connector-curvature="0" /><path
       d="m 106.371,15.704 -9.808,9.808 H 77.43"
       style="fill:none;stroke:#000000;stroke-width:1.98000002;stroke-linecap:round;stroke-linejoin:round;stroke-miterlimit:72;stroke-dasharray:none;stroke-opacity:1"
       id="path34"
       inkscape:connector-curvature="0" /><path
       d="m 77.43,32.712 h 26.333 l 17.008,-17.008"
       style="fill:none;stroke:#000000;stroke-width:1.98000002;stroke-linecap:round;stroke-linejoin:round;stroke-miterlimit:72;stroke-dasharray:none;stroke-opacity:1"
       id="path36"
       inkscape:connector-curvature="0" /><path
       d="m 37.83,51.761 v 0"
       style="fill:none;stroke:#000000;stroke-width:9.92000008;stroke-linecap:round;stroke-linejoin:round;stroke-miterlimit:72;stroke-dasharray:none;stroke-opacity:1"
       id="path38"
       inkscape:connector-curvature="0" /><path
       d="m 39.25,51.76 c 0,0.78 -0.64,1.42 -1.42,1.42 -0.78,0 -1.42,-0.64 -1.42,-1.42 0,-0.78 0.64,-1.42 1.42,-1.42 0.78,0 1.42,0.64 1.42,1.42"
       style="fill:#ffffff;fill-opacity:1;fill-rule:nonzero;stroke:none"
       id="path40"
       inkscape:connector-curvature="0" /><path
       d="m 37.83,19.048 v 0"
       style="fill:none;stroke:#000000;stroke-width:9.92000008;stroke-linecap:round;stroke-linejoin:round;stroke-miterlimit:72;stroke-dasharray:none;stroke-opacity:1"
       id="path42"
       inkscape:connector-curvature="0" /><path
       d="m 39.25,19.05 c 0,0.78 -0.64,1.42 -1.42,1.42 -0.78,0 -1.42,-0.64 -1.42,-1.42 0,-0.78 0.64,-1.42 1.42,-1.42 0.78,0 1.42,0.64 1.42,1.42"
       style="fill:#ffffff;fill-opacity:1;fill-rule:nonzero;stroke:none"
       id="path44"
       inkscape:connector-curvature="0" /><path
       d="m 123.61,15.7 c 0,1.57 -1.27,2.84 -2.84,2.84 -1.56,0 -2.83,-1.27 -2.83,-2.84 0,-1.56 1.27,-2.83 2.83,-2.83 1.57,0 2.84,1.27 2.84,2.83"
       style="fill:#000000;fill-opacity:1;fill-rule:nonzero;stroke:none"
       id="path46"
       inkscape:connector-curvature="0" /><path
       d="m 122.19,15.7 c 0,0.79 -0.64,1.42 -1.42,1.42 -0.78,0 -1.42,-0.63 -1.42,-1.42 0,-0.78 0.64,-1.41 1.42,-1.41 0.78,0 1.42,0.63 1.42,1.41"
       style="fill:#ffffff;fill-opacity:1;fill-rule:nonzero;stroke:none"
       id="path48"
       inkscape:connector-curvature="0" /><path
       d="m 109.21,15.7 c 0,1.57 -1.27,2.84 -2.84,2.84 -1.56,0 -2.83,-1.27 -2.83,-2.84 0,-1.56 1.27,-2.83 2.83,-2.83 1.57,0 2.84,1.27 2.84,2.83"
       style="fill:#000000;fill-opacity:1;fill-rule:nonzero;stroke:none"
       id="path50"
       inkscape:connector-curvature="0" /><path
       d="m 107.79,15.7 c 0,0.79 -0.64,1.42 -1.42,1.42 -0.78,0 -1.42,-0.63 -1.42,-1.42 0,-0.78 0.64,-1.41 1.42,-1.41 0.78,0 1.42,0.63 1.42,1.41"
       style="fill:#ffffff;fill-opacity:1;fill-rule:nonzero;stroke:none"
       id="path52"
       inkscape:connector-curvature="0" /><path
       d="m 80.26,47.11 c 0,1.57 -1.26,2.84 -2.83,2.84 -1.57,0 -2.84,-1.27 -2.84,-2.84 0,-1.56 1.27,-2.83 2.84,-2.83 1.57,0 2.83,1.27 2.83,2.83"
       style="fill:#000000;fill-opacity:1;fill-rule:nonzero;stroke:none"
       id="path54"
       inkscape:connector-curvature="0" /><path
       d="m 78.85,47.11 c 0,0.78 -0.64,1.42 -1.42,1.42 -0.78,0 -1.42,-0.64 -1.42,-1.42 0,-0.78 0.64,-1.42 1.42,-1.42 0.78,0 1.42,0.64 1.42,1.42"
       style="fill:#ffffff;fill-opacity:1;fill-rule:nonzero;stroke:none"
       id="path56"
       inkscape:connector-curvature="0" /><path
       d="m 80.26,39.91 c 0,1.57 -1.26,2.84 -2.83,2.84 -1.57,0 -2.84,-1.27 -2.84,-2.84 0,-1.56 1.27,-2.83 2.84,-2.83 1.57,0 2.83,1.27 2.83,2.83"
       style="fill:#000000;fill-opacity:1;fill-rule:nonzero;stroke:none"
       id="path58"
       inkscape:connector-curvature="0" /><path
       d="m 78.85,39.91 c 0,0.78 -0.64,1.42 -1.42,1.42 -0.78,0 -1.42,-0.64 -1.42,-1.42 0,-0.78 0.64,-1.42 1.42,-1.42 0.78,0 1.42,0.64 1.42,1.42"
       style="fill:#ffffff;fill-opacity:1;fill-rule:nonzero;stroke:none"
       id="path60"
       inkscape:connector-curvature="0" /><path
       d="m 80.26,32.71 c 0,1.57 -1.26,2.84 -2.83,2.84 -1.57,0 -2.84,-1.27 -2.84,-2.84 0,-1.56 1.27,-2.83 2.84,-2.83 1.57,0 2.83,1.27 2.83,2.83"
       style="fill:#000000;fill-opacity:1;fill-rule:nonzero;stroke:none"
       id="path62"
       inkscape:connector-curvature="0" /><path
       d="m 78.85,32.71 c 0,0.78 -0.64,1.42 -1.42,1.42 -0.78,0 -1.42,-0.64 -1.42,-1.42 0,-0.78 0.64,-1.42 1.42,-1.42 0.78,0 1.42,0.64 1.42,1.42"
       style="fill:#ffffff;fill-opacity:1;fill-rule:nonzero;stroke:none"
       id="path64"
       inkscape:connector-curvature="0" /><path
       d="m 80.26,25.51 c 0,1.57 -1.26,2.84 -2.83,2.84 -1.57,0 -2.84,-1.27 -2.84,-2.84 0,-1.56 1.27,-2.83 2.84,-2.83 1.57,0 2.83,1.27 2.83,2.83"
       style="fill:#000000;fill-opacity:1;fill-rule:nonzero;stroke:none"
       id="path66"
       inkscape:connector-curvature="0" /><path
       d="m 78.85,25.51 c 0,0.78 -0.64,1.42 -1.42,1.42 -0.78,0 -1.42,-0.64 -1.42,-1.42 0,-0.78 0.64,-1.42 1.42,-1.42 0.78,0 1.42,0.64 1.42,1.42"
       style="fill:#ffffff;fill-opacity:1;fill-rule:nonzero;stroke:none"
       id="path68"
       inkscape:connector-curvature="0" /><path
       d="m 152.26,25.51 c 0,1.57 -1.26,2.84 -2.83,2.84 -1.57,0 -2.84,-1.27 -2.84,-2.84 0,-1.56 1.27,-2.83 2.84,-2.83 1.57,0 2.83,1.27 2.83,2.83"
       style="fill:#000000;fill-opacity:1;fill-rule:nonzero;stroke:none"
       id="path70"
       inkscape:connector-curvature="0" /><path
       d="m 150.85,25.51 c 0,0.78 -0.64,1.42 -1.42,1.42 -0.78,0 -1.42,-0.64 -1.42,-1.42 0,-0.78 0.64,-1.42 1.42,-1.42 0.78,0 1.42,0.64 1.42,1.42"
       style="fill:#ffffff;fill-opacity:1;fill-rule:nonzero;stroke:none"
       id="path72"
       inkscape:connector-curvature="0" /><path
       d="m 152.26,32.71 c 0,1.57 -1.26,2.84 -2.83,2.84 -1.57,0 -2.84,-1.27 -2.84,-2.84 0,-1.56 1.27,-2.83 2.84,-2.83 1.57,0 2.83,1.27 2.83,2.83"
       style="fill:#000000;fill-opacity:1;fill-rule:nonzero;stroke:none"
       id="path74"
       inkscape:connector-curvature="0" /><path
       d="m 150.85,32.71 c 0,0.78 -0.64,1.42 -1.42,1.42 -0.78,0 -1.42,-0.64 -1.42,-1.42 0,-0.78 0.64,-1.42 1.42,-1.42 0.78,0 1.42,0.64 1.42,1.42"
       style="fill:#ffffff;fill-opacity:1;fill-rule:nonzero;stroke:none"
       id="path76"
       inkscape:connector-curvature="0" /><path
       d="m 152.26,39.91 c 0,1.57 -1.26,2.84 -2.83,2.84 -1.57,0 -2.84,-1.27 -2.84,-2.84 0,-1.56 1.27,-2.83 2.84,-2.83 1.57,0 2.83,1.27 2.83,2.83"
       style="fill:#000000;fill-opacity:1;fill-rule:nonzero;stroke:none"
       id="path78"
       inkscape:connector-curvature="0" /><path
       d="m 150.85,39.91 c 0,0.78 -0.64,1.42 -1.42,1.42 -0.78,0 -1.42,-0.64 -1.42,-1.42 0,-0.78 0.64,-1.42 1.42,-1.42 0.78,0 1.42,0.64 1.42,1.42"
       style="fill:#ffffff;fill-opacity:1;fill-rule:nonzero;stroke:none"
       id="path80"
       inkscape:connector-curvature="0" /><path
       d="m 152.26,47.11 c 0,1.57 -1.26,2.84 -2.83,2.84 -1.57,0 -2.84,-1.27 -2.84,-2.84 0,-1.56 1.27,-2.83 2.84,-2.83 1.57,0 2.83,1.27 2.83,2.83"
       style="fill:#000000;fill-opacity:1;fill-rule:nonzero;stroke:none"
       id="path82"
       inkscape:connector-curvature="0" /><path
       d="m 150.85,47.11 c 0,0.78 -0.64,1.42 -1.42,1.42 -0.78,0 -1.42,-0.64 -1.42,-1.42 0,-0.78 0.64,-1.42 1.42,-1.42 0.78,0 1.42,0.64 1.42,1.42"
       style="fill:#ffffff;fill-opacity:1;fill-rule:nonzero;stroke:none"
       id="path84"
       inkscape:connector-curvature="0" /><path
       d="m 57.99,22.99 c 0,1.19 -0.97,2.16 -2.16,2.16 -1.19,0 -2.16,-0.97 -2.16,-2.16 0,-1.19 0.97,-2.16 2.16,-2.16 1.19,0 2.16,0.97 2.16,2.16"
       style="fill:#000000;fill-opacity:1;fill-rule:nonzero;stroke:none"
       id="path86"
       inkscape:connector-curvature="0" /><path
       d="m 57.13,22.99 c 0,0.72 -0.58,1.3 -1.3,1.3 -0.72,0 -1.3,-0.58 -1.3,-1.3 0,-0.71 0.58,-1.29 1.3,-1.29 0.72,0 1.3,0.58 1.3,1.29"
       style="fill:#ffffff;fill-opacity:1;fill-rule:nonzero;stroke:none"
       id="path88"
       inkscape:connector-curvature="0" /><path
       d="m 65.19,26.59 c 0,1.19 -0.97,2.16 -2.16,2.16 -1.19,0 -2.16,-0.97 -2.16,-2.16 0,-1.19 0.97,-2.16 2.16,-2.16 1.19,0 2.16,0.97 2.16,2.16"
       style="fill:#000000;fill-opacity:1;fill-rule:nonzero;stroke:none"
       id="path90"
       inkscape:connector-curvature="0" /><path
       d="m 64.33,26.59 c 0,0.72 -0.58,1.3 -1.3,1.3 -0.72,0 -1.3,-0.58 -1.3,-1.3 0,-0.71 0.58,-1.29 1.3,-1.29 0.72,0 1.3,0.58 1.3,1.29"
       style="fill:#ffffff;fill-opacity:1;fill-rule:nonzero;stroke:none"
       id="path92"
       inkscape:connector-curvature="0" /><path
       d="m 57.99,30.19 c 0,1.19 -0.97,2.16 -2.16,2.16 -1.19,0 -2.16,-0.97 -2.16,-2.16 0,-1.19 0.97,-2.16 2.16,-2.16 1.19,0 2.16,0.97 2.16,2.16"
       style="fill:#000000;fill-opacity:1;fill-rule:nonzero;stroke:none"
       id="path94"
       inkscape:connector-curvature="0" /><path
       d="m 57.13,30.19 c 0,0.72 -0.58,1.3 -1.3,1.3 -0.72,0 -1.3,-0.58 -1.3,-1.3 0,-0.71 0.58,-1.29 1.3,-1.29 0.72,0 1.3,0.58 1.3,1.29"
       style="fill:#ffffff;fill-opacity:1;fill-rule:nonzero;stroke:none"
       id="path96"
       inkscape:connector-curvature="0" /><path
       d="m 65.19,33.79 c 0,1.19 -0.97,2.16 -2.16,2.16 -1.19,0 -2.16,-0.97 -2.16,-2.16 0,-1.19 0.97,-2.16 2.16,-2.16 1.19,0 2.16,0.97 2.16,2.16"
       style="fill:#000000;fill-opacity:1;fill-rule:nonzero;stroke:none"
       id="path98"
       inkscape:connector-curvature="0" /><path
       d="m 64.33,33.79 c 0,0.72 -0.58,1.3 -1.3,1.3 -0.72,0 -1.3,-0.58 -1.3,-1.3 0,-0.71 0.58,-1.29 1.3,-1.29 0.72,0 1.3,0.58 1.3,1.29"
       style="fill:#ffffff;fill-opacity:1;fill-rule:nonzero;stroke:none"
       id="path100"
       inkscape:connector-curvature="0" /><path
       d="m 57.99,37.39 c 0,1.19 -0.97,2.16 -2.16,2.16 -1.19,0 -2.16,-0.97 -2.16,-2.16 0,-1.19 0.97,-2.16 2.16,-2.16 1.19,0 2.16,0.97 2.16,2.16"
       style="fill:#000000;fill-opacity:1;fill-rule:nonzero;stroke:none"
       id="path102"
       inkscape:connector-curvature="0" /><path
       d="m 57.13,37.39 c 0,0.72 -0.58,1.3 -1.3,1.3 -0.72,0 -1.3,-0.58 -1.3,-1.3 0,-0.71 0.58,-1.29 1.3,-1.29 0.72,0 1.3,0.58 1.3,1.29"
       style="fill:#ffffff;fill-opacity:1;fill-rule:nonzero;stroke:none"
       id="path104"
       inkscape:connector-curvature="0" /><path
       d="m 65.19,40.99 c 0,1.19 -0.97,2.16 -2.16,2.16 -1.19,0 -2.16,-0.97 -2.16,-2.16 0,-1.19 0.97,-2.16 2.16,-2.16 1.19,0 2.16,0.97 2.16,2.16"
       style="fill:#000000;fill-opacity:1;fill-rule:nonzero;stroke:none"
       id="path106"
       inkscape:connector-curvature="0" /><path
       d="m 64.33,40.99 c 0,0.72 -0.58,1.3 -1.3,1.3 -0.72,0 -1.3,-0.58 -1.3,-1.3 0,-0.71 0.58,-1.29 1.3,-1.29 0.72,0 1.3,0.58 1.3,1.29"
       style="fill:#ffffff;fill-opacity:1;fill-rule:nonzero;stroke:none"
       id="path108"
       inkscape:connector-curvature="0" /><path
       d="m 57.99,44.59 c 0,1.19 -0.97,2.16 -2.16,2.16 -1.19,0 -2.16,-0.97 -2.16,-2.16 0,-1.19 0.97,-2.16 2.16,-2.16 1.19,0 2.16,0.97 2.16,2.16"
       style="fill:#000000;fill-opacity:1;fill-rule:nonzero;stroke:none"
       id="path110"
       inkscape:connector-curvature="0" /><path
       d="m 57.13,44.59 c 0,0.72 -0.58,1.3 -1.3,1.3 -0.72,0 -1.3,-0.58 -1.3,-1.3 0,-0.71 0.58,-1.29 1.3,-1.29 0.72,0 1.3,0.58 1.3,1.29"
       style="fill:#ffffff;fill-opacity:1;fill-rule:nonzero;stroke:none"
       id="path112"
       inkscape:connector-curvature="0" /><path
       d="m 65.19,48.19 c 0,1.19 -0.97,2.16 -2.16,2.16 -1.19,0 -2.16,-0.97 -2.16,-2.16 0,-1.19 0.97,-2.16 2.16,-2.16 1.19,0 2.16,0.97 2.16,2.16"
       style="fill:#000000;fill-opacity:1;fill-rule:nonzero;stroke:none"
       id="path114"
       inkscape:connector-curvature="0" /><path
       d="m 64.33,48.19 c 0,0.72 -0.58,1.3 -1.3,1.3 -0.72,0 -1.3,-0.58 -1.3,-1.3 0,-0.71 0.58,-1.29 1.3,-1.29 0.72,0 1.3,0.58 1.3,1.29"
       style="fill:#ffffff;fill-opacity:1;fill-rule:nonzero;stroke:none"
       id="path116"
       inkscape:connector-curvature="0" /><path
       d="m 166.012,18.312 h 2.835"
       style="fill:none;stroke:#000000;stroke-width:5.67000008;stroke-linecap:round;stroke-linejoin:round;stroke-miterlimit:72;stroke-dasharray:none;stroke-opacity:1"
       id="path118"
       inkscape:connector-curvature="0" /><path
       d="m 168.85,18.31 c 0,0.78 -0.64,1.42 -1.42,1.42 -0.78,0 -1.42,-0.64 -1.42,-1.42 0,-0.78 0.64,-1.42 1.42,-1.42 0.78,0 1.42,0.64 1.42,1.42"
       style="fill:#ffffff;fill-opacity:1;fill-rule:nonzero;stroke:none"
       id="path120"
       inkscape:connector-curvature="0" /><path
       d="m 166.012,25.512 h 2.835"
       style="fill:none;stroke:#000000;stroke-width:5.67000008;stroke-linecap:round;stroke-linejoin:round;stroke-miterlimit:72;stroke-dasharray:none;stroke-opacity:1"
       id="path122"
       inkscape:connector-curvature="0" /><path
       d="m 168.85,25.51 c 0,0.78 -0.64,1.42 -1.42,1.42 -0.78,0 -1.42,-0.64 -1.42,-1.42 0,-0.78 0.64,-1.42 1.42,-1.42 0.78,0 1.42,0.64 1.42,1.42"
       style="fill:#ffffff;fill-opacity:1;fill-rule:nonzero;stroke:none"
       id="path124"
       inkscape:connector-curvature="0" /><path
       d="m 166.012,32.712 h 2.835"
       style="fill:none;stroke:#000000;stroke-width:5.67000008;stroke-linecap:round;stroke-linejoin:round;stroke-miterlimit:72;stroke-dasharray:none;stroke-opacity:1"
       id="path126"
       inkscape:connector-curvature="0" /><path
       d="m 168.85,32.71 c 0,0.78 -0.64,1.42 -1.42,1.42 -0.78,0 -1.42,-0.64 -1.42,-1.42 0,-0.78 0.64,-1.42 1.42,-1.42 0.78,0 1.42,0.64 1.42,1.42"
       style="fill:#ffffff;fill-opacity:1;fill-rule:nonzero;stroke:none"
       id="path128"
       inkscape:connector-curvature="0" /><path
       d="m 166.012,39.912 h 2.835"
       style="fill:none;stroke:#000000;stroke-width:5.67000008;stroke-linecap:round;stroke-linejoin:round;stroke-miterlimit:72;stroke-dasharray:none;stroke-opacity:1"
       id="path130"
       inkscape:connector-curvature="0" /><path
       d="m 168.85,39.91 c 0,0.78 -0.64,1.42 -1.42,1.42 -0.78,0 -1.42,-0.64 -1.42,-1.42 0,-0.78 0.64,-1.42 1.42,-1.42 0.78,0 1.42,0.64 1.42,1.42"
       style="fill:#ffffff;fill-opacity:1;fill-rule:nonzero;stroke:none"
       id="path132"
       inkscape:connector-curvature="0" /><path
       d="m 166.012,47.112 h 2.835"
       style="fill:none;stroke:#000000;stroke-width:5.67000008;stroke-linecap:round;stroke-linejoin:round;stroke-miterlimit:72;stroke-dasharray:none;stroke-opacity:1"
       id="path134"
       inkscape:connector-curvature="0" /><path
       d="m 168.85,47.11 c 0,0.78 -0.64,1.42 -1.42,1.42 -0.78,0 -1.42,-0.64 -1.42,-1.42 0,-0.78 0.64,-1.42 1.42,-1.42 0.78,0 1.42,0.64 1.42,1.42"
       style="fill:#ffffff;fill-opacity:1;fill-rule:nonzero;stroke:none"
       id="path136"
       inkscape:connector-curvature="0" /><path
       d="M 7.272,7.2 H 177.351 V 63.893 H 7.272 V 7.2"
       style="fill:none;stroke:#000000;stroke-width:1.41999996;stroke-linecap:round;stroke-linejoin:round;stroke-miterlimit:72;stroke-dasharray:none;stroke-opacity:1"
       id="path138"
       inkscape:connector-curvature="0" /></g></svg>