<?xml version="1.0" encoding="UTF-8" standalone="no"?>
<!-- Created with Inkscape (http://www.inkscape.org/) -->

<svg
   xmlns:dc="http://purl.org/dc/elements/1.1/"
   xmlns:cc="http://creativecommons.org/ns#"
   xmlns:rdf="http://www.w3.org/1999/02/22-rdf-syntax-ns#"
   xmlns:svg="http://www.w3.org/2000/svg"
   xmlns="http://www.w3.org/2000/svg"
   xmlns:sodipodi="http://sodipodi.sourceforge.net/DTD/sodipodi-0.dtd"
   xmlns:inkscape="http://www.inkscape.org/namespaces/inkscape"
   version="1.1"
   id="svg2"
   xml:space="preserve"
   width="181.92"
   height="94.746666"
   viewBox="0 0 181.92 94.746666"
   sodipodi:docname="pcbrs485.svg"
   inkscape:version="0.92.3 (2405546, 2018-03-11)"><metadata
     id="metadata8"><rdf:RDF><cc:Work
         rdf:about=""><dc:format>image/svg+xml</dc:format><dc:type
           rdf:resource="http://purl.org/dc/dcmitype/StillImage" /><dc:title></dc:title></cc:Work></rdf:RDF></metadata><defs
     id="defs6" /><sodipodi:namedview
     pagecolor="#ffffff"
     bordercolor="#666666"
     borderopacity="1"
     objecttolerance="10"
     gridtolerance="10"
     guidetolerance="10"
     inkscape:pageopacity="0"
     inkscape:pageshadow="2"
     inkscape:window-width="1920"
     inkscape:window-height="1017"
     id="namedview4"
     showgrid="false"
     inkscape:zoom="2.4908528"
     inkscape:cx="90.959999"
     inkscape:cy="47.373333"
     inkscape:window-x="1272"
     inkscape:window-y="-8"
     inkscape:window-maximized="1"
     inkscape:current-layer="g10" /><g
     id="g10"
     inkscape:groupmode="layer"
     inkscape:label="PCB_PCB_2020-01-21 19_05_42_20200121191351"
     transform="matrix(1.3333333,0,0,-1.3333333,0,94.746667)"><path
       d="M 0,71.06 H 136.44 V 0 H 0 Z"
       style="fill:#ffffff;fill-opacity:1;fill-rule:nonzero;stroke:none"
       id="path12"
       inkscape:connector-curvature="0" /><path
       d="m 99.762,34.804 v 7.2"
       style="fill:none;stroke:#000000;stroke-width:1.98000002;stroke-linecap:round;stroke-linejoin:round;stroke-miterlimit:72;stroke-dasharray:none;stroke-opacity:1"
       id="path14"
       inkscape:connector-curvature="0" /><path
       d="m 99.762,42.004 h 3.96 l 10.8,10.8 h 3.24"
       style="fill:none;stroke:#000000;stroke-width:1.98000002;stroke-linecap:round;stroke-linejoin:round;stroke-miterlimit:72;stroke-dasharray:none;stroke-opacity:1"
       id="path16"
       inkscape:connector-curvature="0" /><path
       d="m 99.762,49.204 10.8,10.8 h 11.16 l 3.24,-3.24 v -22.32 l -3.24,-3.24 h -3.96"
       style="fill:none;stroke:#000000;stroke-width:1.98000002;stroke-linecap:round;stroke-linejoin:round;stroke-miterlimit:72;stroke-dasharray:none;stroke-opacity:1"
       id="path18"
       inkscape:connector-curvature="0" /><path
       d="m 117.762,24.004 -7.2,-7.2 h -14.4"
       style="fill:none;stroke:#000000;stroke-width:1.98000002;stroke-linecap:round;stroke-linejoin:round;stroke-miterlimit:72;stroke-dasharray:none;stroke-opacity:1"
       id="path20"
       inkscape:connector-curvature="0" /><path
       d="m 96.162,16.804 -7.2,7.2 v 21.6 l -3.6,3.6 h -7.2"
       style="fill:none;stroke:#000000;stroke-width:1.98000002;stroke-linecap:round;stroke-linejoin:round;stroke-miterlimit:72;stroke-dasharray:none;stroke-opacity:1"
       id="path22"
       inkscape:connector-curvature="0" /><path
       d="m 81.762,16.804 v 7.2 l -3.6,3.6"
       style="fill:none;stroke:#000000;stroke-width:1.98000002;stroke-linecap:round;stroke-linejoin:round;stroke-miterlimit:72;stroke-dasharray:none;stroke-opacity:1"
       id="path24"
       inkscape:connector-curvature="0" /><path
       d="m 99.762,27.604 h 8.28 l 3.6,3.6 v 4.68 l 2.52,2.52 h 3.6"
       style="fill:none;stroke:#000000;stroke-width:1.98000002;stroke-linecap:round;stroke-linejoin:round;stroke-miterlimit:72;stroke-dasharray:none;stroke-opacity:1"
       id="path26"
       inkscape:connector-curvature="0" /><path
       d="m 117.762,45.604 h -2.52 l -8.64,-8.64"
       style="fill:none;stroke:#000000;stroke-width:1.98000002;stroke-linecap:round;stroke-linejoin:round;stroke-miterlimit:72;stroke-dasharray:none;stroke-opacity:1"
       id="path28"
       inkscape:connector-curvature="0" /><path
       d="m 106.602,12.124 h -20.16 l -4.68,4.68"
       style="fill:none;stroke:#000000;stroke-width:1.98000002;stroke-linecap:round;stroke-linejoin:round;stroke-miterlimit:72;stroke-dasharray:none;stroke-opacity:1"
       id="path30"
       inkscape:connector-curvature="0" /><path
       d="m 78.162,27.604 h -9.72 l -1.8,1.8"
       style="fill:none;stroke:#000000;stroke-width:1.98000002;stroke-linecap:round;stroke-linejoin:round;stroke-miterlimit:72;stroke-dasharray:none;stroke-opacity:1"
       id="path32"
       inkscape:connector-curvature="0" /><path
       d="m 66.642,29.404 -3.6,-3.6 h -3.6"
       style="fill:none;stroke:#000000;stroke-width:1.98000002;stroke-linecap:round;stroke-linejoin:round;stroke-miterlimit:72;stroke-dasharray:none;stroke-opacity:1"
       id="path34"
       inkscape:connector-curvature="0" /><path
       d="m 59.442,33.004 v 14.4"
       style="fill:none;stroke:#000000;stroke-width:1.98000002;stroke-linecap:round;stroke-linejoin:round;stroke-miterlimit:72;stroke-dasharray:none;stroke-opacity:1"
       id="path36"
       inkscape:connector-curvature="0" /><path
       d="m 59.442,47.404 v 0.36 l 3.24,3.24 h 13.68 l 1.8,-1.8"
       style="fill:none;stroke:#000000;stroke-width:1.98000002;stroke-linecap:round;stroke-linejoin:round;stroke-miterlimit:72;stroke-dasharray:none;stroke-opacity:1"
       id="path38"
       inkscape:connector-curvature="0" /><path
       d="m 78.162,42.004 h -9.72 l -1.8,1.8"
       style="fill:none;stroke:#000000;stroke-width:1.98000002;stroke-linecap:round;stroke-linejoin:round;stroke-miterlimit:72;stroke-dasharray:none;stroke-opacity:1"
       id="path40"
       inkscape:connector-curvature="0" /><path
       d="m 78.162,34.804 h -9.72 l -1.8,1.8"
       style="fill:none;stroke:#000000;stroke-width:1.98000002;stroke-linecap:round;stroke-linejoin:round;stroke-miterlimit:72;stroke-dasharray:none;stroke-opacity:1"
       id="path42"
       inkscape:connector-curvature="0" /><path
       d="m 41.348,22.167 v 0"
       style="fill:none;stroke:#000000;stroke-width:9.92000008;stroke-linecap:round;stroke-linejoin:round;stroke-miterlimit:72;stroke-dasharray:none;stroke-opacity:1"
       id="path44"
       inkscape:connector-curvature="0" /><path
       d="m 42.77,22.17 c 0,0.78 -0.64,1.41 -1.42,1.41 -0.78,0 -1.42,-0.63 -1.42,-1.41 0,-0.79 0.64,-1.42 1.42,-1.42 0.78,0 1.42,0.63 1.42,1.42"
       style="fill:#ffffff;fill-opacity:1;fill-rule:nonzero;stroke:none"
       id="path46"
       inkscape:connector-curvature="0" /><path
       d="m 41.348,54.879 v 0"
       style="fill:none;stroke:#000000;stroke-width:9.92000008;stroke-linecap:round;stroke-linejoin:round;stroke-miterlimit:72;stroke-dasharray:none;stroke-opacity:1"
       id="path48"
       inkscape:connector-curvature="0" /><path
       d="m 42.77,54.88 c 0,0.78 -0.64,1.42 -1.42,1.42 -0.78,0 -1.42,-0.64 -1.42,-1.42 0,-0.78 0.64,-1.42 1.42,-1.42 0.78,0 1.42,0.64 1.42,1.42"
       style="fill:#ffffff;fill-opacity:1;fill-rule:nonzero;stroke:none"
       id="path50"
       inkscape:connector-curvature="0" /><path
       d="m 84.6,16.8 c 0,1.57 -1.27,2.84 -2.84,2.84 -1.56,0 -2.83,-1.27 -2.83,-2.84 0,-1.56 1.27,-2.83 2.83,-2.83 1.57,0 2.84,1.27 2.84,2.83"
       style="fill:#000000;fill-opacity:1;fill-rule:nonzero;stroke:none"
       id="path52"
       inkscape:connector-curvature="0" /><path
       d="m 83.18,16.8 c 0,0.79 -0.64,1.42 -1.42,1.42 -0.78,0 -1.42,-0.63 -1.42,-1.42 0,-0.78 0.64,-1.41 1.42,-1.41 0.78,0 1.42,0.63 1.42,1.41"
       style="fill:#ffffff;fill-opacity:1;fill-rule:nonzero;stroke:none"
       id="path54"
       inkscape:connector-curvature="0" /><path
       d="m 99,16.8 c 0,1.57 -1.27,2.84 -2.84,2.84 -1.56,0 -2.83,-1.27 -2.83,-2.84 0,-1.56 1.27,-2.83 2.83,-2.83 1.57,0 2.84,1.27 2.84,2.83"
       style="fill:#000000;fill-opacity:1;fill-rule:nonzero;stroke:none"
       id="path56"
       inkscape:connector-curvature="0" /><path
       d="m 97.58,16.8 c 0,0.79 -0.64,1.42 -1.42,1.42 -0.78,0 -1.42,-0.63 -1.42,-1.42 0,-0.78 0.64,-1.41 1.42,-1.41 0.78,0 1.42,0.63 1.42,1.41"
       style="fill:#ffffff;fill-opacity:1;fill-rule:nonzero;stroke:none"
       id="path58"
       inkscape:connector-curvature="0" /><path
       d="m 61.6,25.8 c 0,1.2 -0.97,2.16 -2.16,2.16 -1.19,0 -2.16,-0.96 -2.16,-2.16 0,-1.19 0.97,-2.16 2.16,-2.16 1.19,0 2.16,0.97 2.16,2.16"
       style="fill:#000000;fill-opacity:1;fill-rule:nonzero;stroke:none"
       id="path60"
       inkscape:connector-curvature="0" /><path
       d="m 60.74,25.8 c 0,0.72 -0.58,1.3 -1.3,1.3 -0.71,0 -1.29,-0.58 -1.29,-1.3 0,-0.71 0.58,-1.29 1.29,-1.29 0.72,0 1.3,0.58 1.3,1.29"
       style="fill:#ffffff;fill-opacity:1;fill-rule:nonzero;stroke:none"
       id="path62"
       inkscape:connector-curvature="0" /><path
       d="m 68.8,29.4 c 0,1.2 -0.97,2.16 -2.16,2.16 -1.19,0 -2.16,-0.96 -2.16,-2.16 0,-1.19 0.97,-2.16 2.16,-2.16 1.19,0 2.16,0.97 2.16,2.16"
       style="fill:#000000;fill-opacity:1;fill-rule:nonzero;stroke:none"
       id="path64"
       inkscape:connector-curvature="0" /><path
       d="m 67.94,29.4 c 0,0.72 -0.58,1.3 -1.3,1.3 -0.71,0 -1.29,-0.58 -1.29,-1.3 0,-0.71 0.58,-1.29 1.29,-1.29 0.72,0 1.3,0.58 1.3,1.29"
       style="fill:#ffffff;fill-opacity:1;fill-rule:nonzero;stroke:none"
       id="path66"
       inkscape:connector-curvature="0" /><path
       d="m 61.6,33 c 0,1.2 -0.97,2.16 -2.16,2.16 -1.19,0 -2.16,-0.96 -2.16,-2.16 0,-1.19 0.97,-2.16 2.16,-2.16 1.19,0 2.16,0.97 2.16,2.16"
       style="fill:#000000;fill-opacity:1;fill-rule:nonzero;stroke:none"
       id="path68"
       inkscape:connector-curvature="0" /><path
       d="m 60.74,33 c 0,0.72 -0.58,1.3 -1.3,1.3 -0.71,0 -1.29,-0.58 -1.29,-1.3 0,-0.71 0.58,-1.29 1.29,-1.29 0.72,0 1.3,0.58 1.3,1.29"
       style="fill:#ffffff;fill-opacity:1;fill-rule:nonzero;stroke:none"
       id="path70"
       inkscape:connector-curvature="0" /><path
       d="m 68.8,36.6 c 0,1.2 -0.97,2.16 -2.16,2.16 -1.19,0 -2.16,-0.96 -2.16,-2.16 0,-1.19 0.97,-2.16 2.16,-2.16 1.19,0 2.16,0.97 2.16,2.16"
       style="fill:#000000;fill-opacity:1;fill-rule:nonzero;stroke:none"
       id="path72"
       inkscape:connector-curvature="0" /><path
       d="m 67.94,36.6 c 0,0.72 -0.58,1.3 -1.3,1.3 -0.71,0 -1.29,-0.58 -1.29,-1.3 0,-0.71 0.58,-1.29 1.29,-1.29 0.72,0 1.3,0.58 1.3,1.29"
       style="fill:#ffffff;fill-opacity:1;fill-rule:nonzero;stroke:none"
       id="path74"
       inkscape:connector-curvature="0" /><path
       d="m 61.6,40.2 c 0,1.2 -0.97,2.16 -2.16,2.16 -1.19,0 -2.16,-0.96 -2.16,-2.16 0,-1.19 0.97,-2.16 2.16,-2.16 1.19,0 2.16,0.97 2.16,2.16"
       style="fill:#000000;fill-opacity:1;fill-rule:nonzero;stroke:none"
       id="path76"
       inkscape:connector-curvature="0" /><path
       d="m 60.74,40.2 c 0,0.72 -0.58,1.3 -1.3,1.3 -0.71,0 -1.29,-0.58 -1.29,-1.3 0,-0.71 0.58,-1.29 1.29,-1.29 0.72,0 1.3,0.58 1.3,1.29"
       style="fill:#ffffff;fill-opacity:1;fill-rule:nonzero;stroke:none"
       id="path78"
       inkscape:connector-curvature="0" /><path
       d="m 68.8,43.8 c 0,1.2 -0.97,2.16 -2.16,2.16 -1.19,0 -2.16,-0.96 -2.16,-2.16 0,-1.19 0.97,-2.16 2.16,-2.16 1.19,0 2.16,0.97 2.16,2.16"
       style="fill:#000000;fill-opacity:1;fill-rule:nonzero;stroke:none"
       id="path80"
       inkscape:connector-curvature="0" /><path
       d="m 67.94,43.8 c 0,0.72 -0.58,1.3 -1.3,1.3 -0.71,0 -1.29,-0.58 -1.29,-1.3 0,-0.71 0.58,-1.29 1.29,-1.29 0.72,0 1.3,0.58 1.3,1.29"
       style="fill:#ffffff;fill-opacity:1;fill-rule:nonzero;stroke:none"
       id="path82"
       inkscape:connector-curvature="0" /><path
       d="m 61.6,47.4 c 0,1.2 -0.97,2.16 -2.16,2.16 -1.19,0 -2.16,-0.96 -2.16,-2.16 0,-1.19 0.97,-2.16 2.16,-2.16 1.19,0 2.16,0.97 2.16,2.16"
       style="fill:#000000;fill-opacity:1;fill-rule:nonzero;stroke:none"
       id="path84"
       inkscape:connector-curvature="0" /><path
       d="m 60.74,47.4 c 0,0.72 -0.58,1.3 -1.3,1.3 -0.71,0 -1.29,-0.58 -1.29,-1.3 0,-0.71 0.58,-1.29 1.29,-1.29 0.72,0 1.3,0.58 1.3,1.29"
       style="fill:#ffffff;fill-opacity:1;fill-rule:nonzero;stroke:none"
       id="path86"
       inkscape:connector-curvature="0" /><path
       d="m 68.8,51 c 0,1.2 -0.97,2.16 -2.16,2.16 -1.19,0 -2.16,-0.96 -2.16,-2.16 0,-1.19 0.97,-2.16 2.16,-2.16 1.19,0 2.16,0.97 2.16,2.16"
       style="fill:#000000;fill-opacity:1;fill-rule:nonzero;stroke:none"
       id="path88"
       inkscape:connector-curvature="0" /><path
       d="m 67.94,51 c 0,0.72 -0.58,1.3 -1.3,1.3 -0.71,0 -1.29,-0.58 -1.29,-1.3 0,-0.71 0.58,-1.29 1.29,-1.29 0.72,0 1.3,0.58 1.3,1.29"
       style="fill:#ffffff;fill-opacity:1;fill-rule:nonzero;stroke:none"
       id="path90"
       inkscape:connector-curvature="0" /><path
       d="m 114.927,21.169 v 5.669 h 5.67 v -5.669 z"
       style="fill:#000000;fill-opacity:1;fill-rule:nonzero;stroke:none"
       id="path92"
       inkscape:connector-curvature="0" /><path
       d="m 119.18,24 c 0,0.79 -0.64,1.42 -1.42,1.42 -0.78,0 -1.42,-0.63 -1.42,-1.42 0,-0.78 0.64,-1.41 1.42,-1.41 0.78,0 1.42,0.63 1.42,1.41"
       style="fill:#ffffff;fill-opacity:1;fill-rule:nonzero;stroke:none"
       id="path94"
       inkscape:connector-curvature="0" /><path
       d="m 120.6,31.2 c 0,1.57 -1.27,2.84 -2.84,2.84 -1.56,0 -2.83,-1.27 -2.83,-2.84 0,-1.56 1.27,-2.83 2.83,-2.83 1.57,0 2.84,1.27 2.84,2.83"
       style="fill:#000000;fill-opacity:1;fill-rule:nonzero;stroke:none"
       id="path96"
       inkscape:connector-curvature="0" /><path
       d="m 119.18,31.2 c 0,0.79 -0.64,1.42 -1.42,1.42 -0.78,0 -1.42,-0.63 -1.42,-1.42 0,-0.78 0.64,-1.41 1.42,-1.41 0.78,0 1.42,0.63 1.42,1.41"
       style="fill:#ffffff;fill-opacity:1;fill-rule:nonzero;stroke:none"
       id="path98"
       inkscape:connector-curvature="0" /><path
       d="m 120.6,38.4 c 0,1.57 -1.27,2.84 -2.84,2.84 -1.56,0 -2.83,-1.27 -2.83,-2.84 0,-1.56 1.27,-2.83 2.83,-2.83 1.57,0 2.84,1.27 2.84,2.83"
       style="fill:#000000;fill-opacity:1;fill-rule:nonzero;stroke:none"
       id="path100"
       inkscape:connector-curvature="0" /><path
       d="m 119.18,38.4 c 0,0.79 -0.64,1.42 -1.42,1.42 -0.78,0 -1.42,-0.63 -1.42,-1.42 0,-0.78 0.64,-1.41 1.42,-1.41 0.78,0 1.42,0.63 1.42,1.41"
       style="fill:#ffffff;fill-opacity:1;fill-rule:nonzero;stroke:none"
       id="path102"
       inkscape:connector-curvature="0" /><path
       d="m 120.6,45.6 c 0,1.57 -1.27,2.84 -2.84,2.84 -1.56,0 -2.83,-1.27 -2.83,-2.84 0,-1.56 1.27,-2.83 2.83,-2.83 1.57,0 2.84,1.27 2.84,2.83"
       style="fill:#000000;fill-opacity:1;fill-rule:nonzero;stroke:none"
       id="path104"
       inkscape:connector-curvature="0" /><path
       d="m 119.18,45.6 c 0,0.79 -0.64,1.42 -1.42,1.42 -0.78,0 -1.42,-0.63 -1.42,-1.42 0,-0.78 0.64,-1.41 1.42,-1.41 0.78,0 1.42,0.63 1.42,1.41"
       style="fill:#ffffff;fill-opacity:1;fill-rule:nonzero;stroke:none"
       id="path106"
       inkscape:connector-curvature="0" /><path
       d="m 120.6,52.8 c 0,1.57 -1.27,2.84 -2.84,2.84 -1.56,0 -2.83,-1.27 -2.83,-2.84 0,-1.56 1.27,-2.83 2.83,-2.83 1.57,0 2.84,1.27 2.84,2.83"
       style="fill:#000000;fill-opacity:1;fill-rule:nonzero;stroke:none"
       id="path108"
       inkscape:connector-curvature="0" /><path
       d="m 119.18,52.8 c 0,0.79 -0.64,1.42 -1.42,1.42 -0.78,0 -1.42,-0.63 -1.42,-1.42 0,-0.78 0.64,-1.41 1.42,-1.41 0.78,0 1.42,0.63 1.42,1.41"
       style="fill:#ffffff;fill-opacity:1;fill-rule:nonzero;stroke:none"
       id="path110"
       inkscape:connector-curvature="0" /><path
       d="m 96.927,24.769 v 5.669 h 5.67 v -5.669 z"
       style="fill:#000000;fill-opacity:1;fill-rule:nonzero;stroke:none"
       id="path112"
       inkscape:connector-curvature="0" /><path
       d="m 101.18,27.6 c 0,0.79 -0.64,1.42 -1.42,1.42 -0.78,0 -1.42,-0.63 -1.42,-1.42 0,-0.78 0.64,-1.41 1.42,-1.41 0.78,0 1.42,0.63 1.42,1.41"
       style="fill:#ffffff;fill-opacity:1;fill-rule:nonzero;stroke:none"
       id="path114"
       inkscape:connector-curvature="0" /><path
       d="m 102.6,34.8 c 0,1.57 -1.27,2.84 -2.84,2.84 -1.56,0 -2.83,-1.27 -2.83,-2.84 0,-1.56 1.27,-2.83 2.83,-2.83 1.57,0 2.84,1.27 2.84,2.83"
       style="fill:#000000;fill-opacity:1;fill-rule:nonzero;stroke:none"
       id="path116"
       inkscape:connector-curvature="0" /><path
       d="m 101.18,34.8 c 0,0.79 -0.64,1.42 -1.42,1.42 -0.78,0 -1.42,-0.63 -1.42,-1.42 0,-0.78 0.64,-1.41 1.42,-1.41 0.78,0 1.42,0.63 1.42,1.41"
       style="fill:#ffffff;fill-opacity:1;fill-rule:nonzero;stroke:none"
       id="path118"
       inkscape:connector-curvature="0" /><path
       d="m 102.6,42 c 0,1.57 -1.27,2.84 -2.84,2.84 -1.56,0 -2.83,-1.27 -2.83,-2.84 0,-1.56 1.27,-2.83 2.83,-2.83 1.57,0 2.84,1.27 2.84,2.83"
       style="fill:#000000;fill-opacity:1;fill-rule:nonzero;stroke:none"
       id="path120"
       inkscape:connector-curvature="0" /><path
       d="m 101.18,42 c 0,0.79 -0.64,1.42 -1.42,1.42 -0.78,0 -1.42,-0.63 -1.42,-1.42 0,-0.78 0.64,-1.41 1.42,-1.41 0.78,0 1.42,0.63 1.42,1.41"
       style="fill:#ffffff;fill-opacity:1;fill-rule:nonzero;stroke:none"
       id="path122"
       inkscape:connector-curvature="0" /><path
       d="m 102.6,49.2 c 0,1.57 -1.27,2.84 -2.84,2.84 -1.56,0 -2.83,-1.27 -2.83,-2.84 0,-1.56 1.27,-2.83 2.83,-2.83 1.57,0 2.84,1.27 2.84,2.83"
       style="fill:#000000;fill-opacity:1;fill-rule:nonzero;stroke:none"
       id="path124"
       inkscape:connector-curvature="0" /><path
       d="m 101.18,49.2 c 0,0.79 -0.64,1.42 -1.42,1.42 -0.78,0 -1.42,-0.63 -1.42,-1.42 0,-0.78 0.64,-1.41 1.42,-1.41 0.78,0 1.42,0.63 1.42,1.41"
       style="fill:#ffffff;fill-opacity:1;fill-rule:nonzero;stroke:none"
       id="path126"
       inkscape:connector-curvature="0" /><path
       d="m 81,49.2 c 0,1.57 -1.27,2.84 -2.84,2.84 -1.56,0 -2.83,-1.27 -2.83,-2.84 0,-1.56 1.27,-2.83 2.83,-2.83 1.57,0 2.84,1.27 2.84,2.83"
       style="fill:#000000;fill-opacity:1;fill-rule:nonzero;stroke:none"
       id="path128"
       inkscape:connector-curvature="0" /><path
       d="m 79.58,49.2 c 0,0.79 -0.64,1.42 -1.42,1.42 -0.78,0 -1.42,-0.63 -1.42,-1.42 0,-0.78 0.64,-1.41 1.42,-1.41 0.78,0 1.42,0.63 1.42,1.41"
       style="fill:#ffffff;fill-opacity:1;fill-rule:nonzero;stroke:none"
       id="path130"
       inkscape:connector-curvature="0" /><path
       d="m 81,42 c 0,1.57 -1.27,2.84 -2.84,2.84 -1.56,0 -2.83,-1.27 -2.83,-2.84 0,-1.56 1.27,-2.83 2.83,-2.83 1.57,0 2.84,1.27 2.84,2.83"
       style="fill:#000000;fill-opacity:1;fill-rule:nonzero;stroke:none"
       id="path132"
       inkscape:connector-curvature="0" /><path
       d="m 79.58,42 c 0,0.79 -0.64,1.42 -1.42,1.42 -0.78,0 -1.42,-0.63 -1.42,-1.42 0,-0.78 0.64,-1.41 1.42,-1.41 0.78,0 1.42,0.63 1.42,1.41"
       style="fill:#ffffff;fill-opacity:1;fill-rule:nonzero;stroke:none"
       id="path134"
       inkscape:connector-curvature="0" /><path
       d="m 81,34.8 c 0,1.57 -1.27,2.84 -2.84,2.84 -1.56,0 -2.83,-1.27 -2.83,-2.84 0,-1.56 1.27,-2.83 2.83,-2.83 1.57,0 2.84,1.27 2.84,2.83"
       style="fill:#000000;fill-opacity:1;fill-rule:nonzero;stroke:none"
       id="path136"
       inkscape:connector-curvature="0" /><path
       d="m 79.58,34.8 c 0,0.79 -0.64,1.42 -1.42,1.42 -0.78,0 -1.42,-0.63 -1.42,-1.42 0,-0.78 0.64,-1.41 1.42,-1.41 0.78,0 1.42,0.63 1.42,1.41"
       style="fill:#ffffff;fill-opacity:1;fill-rule:nonzero;stroke:none"
       id="path138"
       inkscape:connector-curvature="0" /><path
       d="m 81,27.6 c 0,1.57 -1.27,2.84 -2.84,2.84 -1.56,0 -2.83,-1.27 -2.83,-2.84 0,-1.56 1.27,-2.83 2.83,-2.83 1.57,0 2.84,1.27 2.84,2.83"
       style="fill:#000000;fill-opacity:1;fill-rule:nonzero;stroke:none"
       id="path140"
       inkscape:connector-curvature="0" /><path
       d="m 79.58,27.6 c 0,0.79 -0.64,1.42 -1.42,1.42 -0.78,0 -1.42,-0.63 -1.42,-1.42 0,-0.78 0.64,-1.41 1.42,-1.41 0.78,0 1.42,0.63 1.42,1.41"
       style="fill:#ffffff;fill-opacity:1;fill-rule:nonzero;stroke:none"
       id="path142"
       inkscape:connector-curvature="0" /><path
       d="m 109.15,12.12 c 0,1.41 -1.14,2.56 -2.55,2.56 -1.41,0 -2.55,-1.15 -2.55,-2.56 0,-1.4 1.14,-2.55 2.55,-2.55 1.41,0 2.55,1.15 2.55,2.55"
       style="fill:#000000;fill-opacity:1;fill-rule:nonzero;stroke:none"
       id="path144"
       inkscape:connector-curvature="0" /><path
       d="m 107.59,12.12 c 0,0.55 -0.44,1 -0.99,1 -0.55,0 -0.99,-0.45 -0.99,-1 0,-0.54 0.44,-0.99 0.99,-0.99 0.55,0 0.99,0.45 0.99,0.99"
       style="fill:#ffffff;fill-opacity:1;fill-rule:nonzero;stroke:none"
       id="path146"
       inkscape:connector-curvature="0" /><path
       d="m 109.15,36.96 c 0,1.41 -1.14,2.56 -2.55,2.56 -1.41,0 -2.55,-1.15 -2.55,-2.56 0,-1.4 1.14,-2.55 2.55,-2.55 1.41,0 2.55,1.15 2.55,2.55"
       style="fill:#000000;fill-opacity:1;fill-rule:nonzero;stroke:none"
       id="path148"
       inkscape:connector-curvature="0" /><path
       d="m 107.59,36.96 c 0,0.55 -0.44,1 -0.99,1 -0.55,0 -0.99,-0.45 -0.99,-1 0,-0.54 0.44,-0.99 0.99,-0.99 0.55,0 0.99,0.45 0.99,0.99"
       style="fill:#ffffff;fill-opacity:1;fill-rule:nonzero;stroke:none"
       id="path150"
       inkscape:connector-curvature="0" /><path
       d="M 10.224,7.2 H 129.279 V 63.893 H 10.224 V 7.2"
       style="fill:none;stroke:#000000;stroke-width:1.41999996;stroke-linecap:round;stroke-linejoin:round;stroke-miterlimit:72;stroke-dasharray:none;stroke-opacity:1"
       id="path152"
       inkscape:connector-curvature="0" /></g></svg>